%TF.GenerationSoftware,KiCad,Pcbnew,(6.0.9-0)*%
%TF.CreationDate,2022-12-19T14:05:18-05:00*%
%TF.ProjectId,ember-pcb,656d6265-722d-4706-9362-2e6b69636164,rev?*%
%TF.SameCoordinates,Original*%
%TF.FileFunction,Legend,Bot*%
%TF.FilePolarity,Positive*%
%FSLAX46Y46*%
G04 Gerber Fmt 4.6, Leading zero omitted, Abs format (unit mm)*
G04 Created by KiCad (PCBNEW (6.0.9-0)) date 2022-12-19 14:05:18*
%MOMM*%
%LPD*%
G01*
G04 APERTURE LIST*
%ADD10C,0.150000*%
%ADD11C,0.120000*%
G04 APERTURE END LIST*
D10*
X120680000Y-78950000D02*
X151160000Y-78950000D01*
X151160000Y-78950000D02*
X151160000Y-109430000D01*
X151160000Y-109430000D02*
X120680000Y-109430000D01*
X120680000Y-109430000D02*
X120680000Y-78950000D01*
X110520000Y-68790000D02*
X161320000Y-68790000D01*
X161320000Y-68790000D02*
X161320000Y-119590000D01*
X161320000Y-119590000D02*
X110520000Y-119590000D01*
X110520000Y-119590000D02*
X110520000Y-68790000D01*
X134840476Y-66067380D02*
X135411904Y-66067380D01*
X135126190Y-66067380D02*
X135126190Y-65067380D01*
X135221428Y-65210238D01*
X135316666Y-65305476D01*
X135411904Y-65353095D01*
X134221428Y-65067380D02*
X134126190Y-65067380D01*
X134030952Y-65115000D01*
X133983333Y-65162619D01*
X133935714Y-65257857D01*
X133888095Y-65448333D01*
X133888095Y-65686428D01*
X133935714Y-65876904D01*
X133983333Y-65972142D01*
X134030952Y-66019761D01*
X134126190Y-66067380D01*
X134221428Y-66067380D01*
X134316666Y-66019761D01*
X134364285Y-65972142D01*
X134411904Y-65876904D01*
X134459523Y-65686428D01*
X134459523Y-65448333D01*
X134411904Y-65257857D01*
X134364285Y-65162619D01*
X134316666Y-65115000D01*
X134221428Y-65067380D01*
X164145714Y-77132380D02*
X164145714Y-77941904D01*
X164098095Y-78037142D01*
X164050476Y-78084761D01*
X163955238Y-78132380D01*
X163764761Y-78132380D01*
X163669523Y-78084761D01*
X163621904Y-78037142D01*
X163574285Y-77941904D01*
X163574285Y-77132380D01*
X110170714Y-88292380D02*
X110170714Y-87292380D01*
X109599285Y-88292380D01*
X109599285Y-87292380D01*
X163351904Y-65162619D02*
X163304285Y-65115000D01*
X163209047Y-65067380D01*
X162970952Y-65067380D01*
X162875714Y-65115000D01*
X162828095Y-65162619D01*
X162780476Y-65257857D01*
X162780476Y-65353095D01*
X162828095Y-65495952D01*
X163399523Y-66067380D01*
X162780476Y-66067380D01*
X161828095Y-66067380D02*
X162399523Y-66067380D01*
X162113809Y-66067380D02*
X162113809Y-65067380D01*
X162209047Y-65210238D01*
X162304285Y-65305476D01*
X162399523Y-65353095D01*
X163550476Y-93372380D02*
X164026666Y-93372380D01*
X164026666Y-92372380D01*
X164193333Y-74592380D02*
X163860000Y-75592380D01*
X163526666Y-74592380D01*
X127363333Y-65067380D02*
X126696666Y-65067380D01*
X127125238Y-66067380D01*
X137380476Y-121312380D02*
X137951904Y-121312380D01*
X137666190Y-121312380D02*
X137666190Y-120312380D01*
X137761428Y-120455238D01*
X137856666Y-120550476D01*
X137951904Y-120598095D01*
X136428095Y-121312380D02*
X136999523Y-121312380D01*
X136713809Y-121312380D02*
X136713809Y-120312380D01*
X136809047Y-120455238D01*
X136904285Y-120550476D01*
X136999523Y-120598095D01*
X139920476Y-66067380D02*
X140491904Y-66067380D01*
X140206190Y-66067380D02*
X140206190Y-65067380D01*
X140301428Y-65210238D01*
X140396666Y-65305476D01*
X140491904Y-65353095D01*
X139539523Y-65162619D02*
X139491904Y-65115000D01*
X139396666Y-65067380D01*
X139158571Y-65067380D01*
X139063333Y-65115000D01*
X139015714Y-65162619D01*
X138968095Y-65257857D01*
X138968095Y-65353095D01*
X139015714Y-65495952D01*
X139587142Y-66067380D01*
X138968095Y-66067380D01*
X152620476Y-66067380D02*
X153191904Y-66067380D01*
X152906190Y-66067380D02*
X152906190Y-65067380D01*
X153001428Y-65210238D01*
X153096666Y-65305476D01*
X153191904Y-65353095D01*
X152287142Y-65067380D02*
X151620476Y-65067380D01*
X152049047Y-66067380D01*
X119219523Y-120645714D02*
X119219523Y-121312380D01*
X119457619Y-120264761D02*
X119695714Y-120979047D01*
X119076666Y-120979047D01*
X163717142Y-97452380D02*
X163717142Y-98166666D01*
X163764761Y-98309523D01*
X163860000Y-98404761D01*
X164002857Y-98452380D01*
X164098095Y-98452380D01*
X124299523Y-65067380D02*
X124490000Y-65067380D01*
X124585238Y-65115000D01*
X124632857Y-65162619D01*
X124728095Y-65305476D01*
X124775714Y-65495952D01*
X124775714Y-65876904D01*
X124728095Y-65972142D01*
X124680476Y-66019761D01*
X124585238Y-66067380D01*
X124394761Y-66067380D01*
X124299523Y-66019761D01*
X124251904Y-65972142D01*
X124204285Y-65876904D01*
X124204285Y-65638809D01*
X124251904Y-65543571D01*
X124299523Y-65495952D01*
X124394761Y-65448333D01*
X124585238Y-65448333D01*
X124680476Y-65495952D01*
X124728095Y-65543571D01*
X124775714Y-65638809D01*
X163550476Y-83212380D02*
X163883809Y-82736190D01*
X164121904Y-83212380D02*
X164121904Y-82212380D01*
X163740952Y-82212380D01*
X163645714Y-82260000D01*
X163598095Y-82307619D01*
X163550476Y-82402857D01*
X163550476Y-82545714D01*
X163598095Y-82640952D01*
X163645714Y-82688571D01*
X163740952Y-82736190D01*
X164121904Y-82736190D01*
X109575476Y-93372380D02*
X110051666Y-93372380D01*
X110051666Y-92372380D01*
X110146904Y-85752380D02*
X110146904Y-84752380D01*
X109765952Y-84752380D01*
X109670714Y-84800000D01*
X109623095Y-84847619D01*
X109575476Y-84942857D01*
X109575476Y-85085714D01*
X109623095Y-85180952D01*
X109670714Y-85228571D01*
X109765952Y-85276190D01*
X110146904Y-85276190D01*
X132300476Y-121312380D02*
X132110000Y-121312380D01*
X132014761Y-121264761D01*
X131967142Y-121217142D01*
X131871904Y-121074285D01*
X131824285Y-120883809D01*
X131824285Y-120502857D01*
X131871904Y-120407619D01*
X131919523Y-120360000D01*
X132014761Y-120312380D01*
X132205238Y-120312380D01*
X132300476Y-120360000D01*
X132348095Y-120407619D01*
X132395714Y-120502857D01*
X132395714Y-120740952D01*
X132348095Y-120836190D01*
X132300476Y-120883809D01*
X132205238Y-120931428D01*
X132014761Y-120931428D01*
X131919523Y-120883809D01*
X131871904Y-120836190D01*
X131824285Y-120740952D01*
X164074285Y-108088571D02*
X163740952Y-108088571D01*
X163598095Y-108612380D02*
X164074285Y-108612380D01*
X164074285Y-107612380D01*
X163598095Y-107612380D01*
X117203333Y-120312380D02*
X116584285Y-120312380D01*
X116917619Y-120693333D01*
X116774761Y-120693333D01*
X116679523Y-120740952D01*
X116631904Y-120788571D01*
X116584285Y-120883809D01*
X116584285Y-121121904D01*
X116631904Y-121217142D01*
X116679523Y-121264761D01*
X116774761Y-121312380D01*
X117060476Y-121312380D01*
X117155714Y-121264761D01*
X117203333Y-121217142D01*
X137380476Y-66067380D02*
X137951904Y-66067380D01*
X137666190Y-66067380D02*
X137666190Y-65067380D01*
X137761428Y-65210238D01*
X137856666Y-65305476D01*
X137951904Y-65353095D01*
X136428095Y-66067380D02*
X136999523Y-66067380D01*
X136713809Y-66067380D02*
X136713809Y-65067380D01*
X136809047Y-65210238D01*
X136904285Y-65305476D01*
X136999523Y-65353095D01*
X164098095Y-118486666D02*
X163621904Y-118486666D01*
X164193333Y-118772380D02*
X163860000Y-117772380D01*
X163526666Y-118772380D01*
X110123095Y-118486666D02*
X109646904Y-118486666D01*
X110218333Y-118772380D02*
X109885000Y-117772380D01*
X109551666Y-118772380D01*
X110170714Y-77132380D02*
X109599285Y-77132380D01*
X109885000Y-78132380D02*
X109885000Y-77132380D01*
X111504285Y-66067380D02*
X112075714Y-66067380D01*
X111790000Y-66067380D02*
X111790000Y-65067380D01*
X111885238Y-65210238D01*
X111980476Y-65305476D01*
X112075714Y-65353095D01*
X164145714Y-88292380D02*
X164145714Y-87292380D01*
X163574285Y-88292380D01*
X163574285Y-87292380D01*
X132300476Y-66067380D02*
X132110000Y-66067380D01*
X132014761Y-66019761D01*
X131967142Y-65972142D01*
X131871904Y-65829285D01*
X131824285Y-65638809D01*
X131824285Y-65257857D01*
X131871904Y-65162619D01*
X131919523Y-65115000D01*
X132014761Y-65067380D01*
X132205238Y-65067380D01*
X132300476Y-65115000D01*
X132348095Y-65162619D01*
X132395714Y-65257857D01*
X132395714Y-65495952D01*
X132348095Y-65591190D01*
X132300476Y-65638809D01*
X132205238Y-65686428D01*
X132014761Y-65686428D01*
X131919523Y-65638809D01*
X131871904Y-65591190D01*
X131824285Y-65495952D01*
X111504285Y-121312380D02*
X112075714Y-121312380D01*
X111790000Y-121312380D02*
X111790000Y-120312380D01*
X111885238Y-120455238D01*
X111980476Y-120550476D01*
X112075714Y-120598095D01*
X121711904Y-120312380D02*
X122188095Y-120312380D01*
X122235714Y-120788571D01*
X122188095Y-120740952D01*
X122092857Y-120693333D01*
X121854761Y-120693333D01*
X121759523Y-120740952D01*
X121711904Y-120788571D01*
X121664285Y-120883809D01*
X121664285Y-121121904D01*
X121711904Y-121217142D01*
X121759523Y-121264761D01*
X121854761Y-121312380D01*
X122092857Y-121312380D01*
X122188095Y-121264761D01*
X122235714Y-121217142D01*
X109575476Y-83212380D02*
X109908809Y-82736190D01*
X110146904Y-83212380D02*
X110146904Y-82212380D01*
X109765952Y-82212380D01*
X109670714Y-82260000D01*
X109623095Y-82307619D01*
X109575476Y-82402857D01*
X109575476Y-82545714D01*
X109623095Y-82640952D01*
X109670714Y-82688571D01*
X109765952Y-82736190D01*
X110146904Y-82736190D01*
X114615714Y-65162619D02*
X114568095Y-65115000D01*
X114472857Y-65067380D01*
X114234761Y-65067380D01*
X114139523Y-65115000D01*
X114091904Y-65162619D01*
X114044285Y-65257857D01*
X114044285Y-65353095D01*
X114091904Y-65495952D01*
X114663333Y-66067380D01*
X114044285Y-66067380D01*
X117203333Y-65067380D02*
X116584285Y-65067380D01*
X116917619Y-65448333D01*
X116774761Y-65448333D01*
X116679523Y-65495952D01*
X116631904Y-65543571D01*
X116584285Y-65638809D01*
X116584285Y-65876904D01*
X116631904Y-65972142D01*
X116679523Y-66019761D01*
X116774761Y-66067380D01*
X117060476Y-66067380D01*
X117155714Y-66019761D01*
X117203333Y-65972142D01*
X164121904Y-111152380D02*
X164121904Y-110152380D01*
X163883809Y-110152380D01*
X163740952Y-110200000D01*
X163645714Y-110295238D01*
X163598095Y-110390476D01*
X163550476Y-110580952D01*
X163550476Y-110723809D01*
X163598095Y-110914285D01*
X163645714Y-111009523D01*
X163740952Y-111104761D01*
X163883809Y-111152380D01*
X164121904Y-111152380D01*
X163598095Y-102580000D02*
X163693333Y-102532380D01*
X163836190Y-102532380D01*
X163979047Y-102580000D01*
X164074285Y-102675238D01*
X164121904Y-102770476D01*
X164169523Y-102960952D01*
X164169523Y-103103809D01*
X164121904Y-103294285D01*
X164074285Y-103389523D01*
X163979047Y-103484761D01*
X163836190Y-103532380D01*
X163740952Y-103532380D01*
X163598095Y-103484761D01*
X163550476Y-103437142D01*
X163550476Y-103103809D01*
X163740952Y-103103809D01*
X163788571Y-115708571D02*
X163645714Y-115756190D01*
X163598095Y-115803809D01*
X163550476Y-115899047D01*
X163550476Y-116041904D01*
X163598095Y-116137142D01*
X163645714Y-116184761D01*
X163740952Y-116232380D01*
X164121904Y-116232380D01*
X164121904Y-115232380D01*
X163788571Y-115232380D01*
X163693333Y-115280000D01*
X163645714Y-115327619D01*
X163598095Y-115422857D01*
X163598095Y-115518095D01*
X163645714Y-115613333D01*
X163693333Y-115660952D01*
X163788571Y-115708571D01*
X164121904Y-115708571D01*
X129665238Y-120740952D02*
X129760476Y-120693333D01*
X129808095Y-120645714D01*
X129855714Y-120550476D01*
X129855714Y-120502857D01*
X129808095Y-120407619D01*
X129760476Y-120360000D01*
X129665238Y-120312380D01*
X129474761Y-120312380D01*
X129379523Y-120360000D01*
X129331904Y-120407619D01*
X129284285Y-120502857D01*
X129284285Y-120550476D01*
X129331904Y-120645714D01*
X129379523Y-120693333D01*
X129474761Y-120740952D01*
X129665238Y-120740952D01*
X129760476Y-120788571D01*
X129808095Y-120836190D01*
X129855714Y-120931428D01*
X129855714Y-121121904D01*
X129808095Y-121217142D01*
X129760476Y-121264761D01*
X129665238Y-121312380D01*
X129474761Y-121312380D01*
X129379523Y-121264761D01*
X129331904Y-121217142D01*
X129284285Y-121121904D01*
X129284285Y-120931428D01*
X129331904Y-120836190D01*
X129379523Y-120788571D01*
X129474761Y-120740952D01*
X160811904Y-120407619D02*
X160764285Y-120360000D01*
X160669047Y-120312380D01*
X160430952Y-120312380D01*
X160335714Y-120360000D01*
X160288095Y-120407619D01*
X160240476Y-120502857D01*
X160240476Y-120598095D01*
X160288095Y-120740952D01*
X160859523Y-121312380D01*
X160240476Y-121312380D01*
X159621428Y-120312380D02*
X159526190Y-120312380D01*
X159430952Y-120360000D01*
X159383333Y-120407619D01*
X159335714Y-120502857D01*
X159288095Y-120693333D01*
X159288095Y-120931428D01*
X159335714Y-121121904D01*
X159383333Y-121217142D01*
X159430952Y-121264761D01*
X159526190Y-121312380D01*
X159621428Y-121312380D01*
X159716666Y-121264761D01*
X159764285Y-121217142D01*
X159811904Y-121121904D01*
X159859523Y-120931428D01*
X159859523Y-120693333D01*
X159811904Y-120502857D01*
X159764285Y-120407619D01*
X159716666Y-120360000D01*
X159621428Y-120312380D01*
X150080476Y-121312380D02*
X150651904Y-121312380D01*
X150366190Y-121312380D02*
X150366190Y-120312380D01*
X150461428Y-120455238D01*
X150556666Y-120550476D01*
X150651904Y-120598095D01*
X149223333Y-120312380D02*
X149413809Y-120312380D01*
X149509047Y-120360000D01*
X149556666Y-120407619D01*
X149651904Y-120550476D01*
X149699523Y-120740952D01*
X149699523Y-121121904D01*
X149651904Y-121217142D01*
X149604285Y-121264761D01*
X149509047Y-121312380D01*
X149318571Y-121312380D01*
X149223333Y-121264761D01*
X149175714Y-121217142D01*
X149128095Y-121121904D01*
X149128095Y-120883809D01*
X149175714Y-120788571D01*
X149223333Y-120740952D01*
X149318571Y-120693333D01*
X149509047Y-120693333D01*
X149604285Y-120740952D01*
X149651904Y-120788571D01*
X149699523Y-120883809D01*
X142460476Y-121312380D02*
X143031904Y-121312380D01*
X142746190Y-121312380D02*
X142746190Y-120312380D01*
X142841428Y-120455238D01*
X142936666Y-120550476D01*
X143031904Y-120598095D01*
X142127142Y-120312380D02*
X141508095Y-120312380D01*
X141841428Y-120693333D01*
X141698571Y-120693333D01*
X141603333Y-120740952D01*
X141555714Y-120788571D01*
X141508095Y-120883809D01*
X141508095Y-121121904D01*
X141555714Y-121217142D01*
X141603333Y-121264761D01*
X141698571Y-121312380D01*
X141984285Y-121312380D01*
X142079523Y-121264761D01*
X142127142Y-121217142D01*
X110099285Y-108088571D02*
X109765952Y-108088571D01*
X109623095Y-108612380D02*
X110099285Y-108612380D01*
X110099285Y-107612380D01*
X109623095Y-107612380D01*
X164145714Y-79672380D02*
X163574285Y-79672380D01*
X163860000Y-80672380D02*
X163860000Y-79672380D01*
X109623095Y-102580000D02*
X109718333Y-102532380D01*
X109861190Y-102532380D01*
X110004047Y-102580000D01*
X110099285Y-102675238D01*
X110146904Y-102770476D01*
X110194523Y-102960952D01*
X110194523Y-103103809D01*
X110146904Y-103294285D01*
X110099285Y-103389523D01*
X110004047Y-103484761D01*
X109861190Y-103532380D01*
X109765952Y-103532380D01*
X109623095Y-103484761D01*
X109575476Y-103437142D01*
X109575476Y-103103809D01*
X109765952Y-103103809D01*
X164121904Y-85752380D02*
X164121904Y-84752380D01*
X163740952Y-84752380D01*
X163645714Y-84800000D01*
X163598095Y-84847619D01*
X163550476Y-84942857D01*
X163550476Y-85085714D01*
X163598095Y-85180952D01*
X163645714Y-85228571D01*
X163740952Y-85276190D01*
X164121904Y-85276190D01*
X129665238Y-65495952D02*
X129760476Y-65448333D01*
X129808095Y-65400714D01*
X129855714Y-65305476D01*
X129855714Y-65257857D01*
X129808095Y-65162619D01*
X129760476Y-65115000D01*
X129665238Y-65067380D01*
X129474761Y-65067380D01*
X129379523Y-65115000D01*
X129331904Y-65162619D01*
X129284285Y-65257857D01*
X129284285Y-65305476D01*
X129331904Y-65400714D01*
X129379523Y-65448333D01*
X129474761Y-65495952D01*
X129665238Y-65495952D01*
X129760476Y-65543571D01*
X129808095Y-65591190D01*
X129855714Y-65686428D01*
X129855714Y-65876904D01*
X129808095Y-65972142D01*
X129760476Y-66019761D01*
X129665238Y-66067380D01*
X129474761Y-66067380D01*
X129379523Y-66019761D01*
X129331904Y-65972142D01*
X129284285Y-65876904D01*
X129284285Y-65686428D01*
X129331904Y-65591190D01*
X129379523Y-65543571D01*
X129474761Y-65495952D01*
X109575476Y-113597142D02*
X109623095Y-113644761D01*
X109765952Y-113692380D01*
X109861190Y-113692380D01*
X110004047Y-113644761D01*
X110099285Y-113549523D01*
X110146904Y-113454285D01*
X110194523Y-113263809D01*
X110194523Y-113120952D01*
X110146904Y-112930476D01*
X110099285Y-112835238D01*
X110004047Y-112740000D01*
X109861190Y-112692380D01*
X109765952Y-112692380D01*
X109623095Y-112740000D01*
X109575476Y-112787619D01*
X139920476Y-121312380D02*
X140491904Y-121312380D01*
X140206190Y-121312380D02*
X140206190Y-120312380D01*
X140301428Y-120455238D01*
X140396666Y-120550476D01*
X140491904Y-120598095D01*
X139539523Y-120407619D02*
X139491904Y-120360000D01*
X139396666Y-120312380D01*
X139158571Y-120312380D01*
X139063333Y-120360000D01*
X139015714Y-120407619D01*
X138968095Y-120502857D01*
X138968095Y-120598095D01*
X139015714Y-120740952D01*
X139587142Y-121312380D01*
X138968095Y-121312380D01*
X110170714Y-74592380D02*
X110170714Y-75401904D01*
X110123095Y-75497142D01*
X110075476Y-75544761D01*
X109980238Y-75592380D01*
X109789761Y-75592380D01*
X109694523Y-75544761D01*
X109646904Y-75497142D01*
X109599285Y-75401904D01*
X109599285Y-74592380D01*
X142190000Y-64162380D02*
X142190000Y-63162380D01*
X141809047Y-63162380D01*
X141713809Y-63210000D01*
X141666190Y-63257619D01*
X141618571Y-63352857D01*
X141618571Y-63495714D01*
X141666190Y-63590952D01*
X141713809Y-63638571D01*
X141809047Y-63686190D01*
X142190000Y-63686190D01*
X141190000Y-64162380D02*
X141190000Y-63495714D01*
X141190000Y-63162380D02*
X141237619Y-63210000D01*
X141190000Y-63257619D01*
X141142380Y-63210000D01*
X141190000Y-63162380D01*
X141190000Y-63257619D01*
X140713809Y-63495714D02*
X140713809Y-64162380D01*
X140713809Y-63590952D02*
X140666190Y-63543333D01*
X140570952Y-63495714D01*
X140428095Y-63495714D01*
X140332857Y-63543333D01*
X140285238Y-63638571D01*
X140285238Y-64162380D01*
X138475714Y-64067142D02*
X138523333Y-64114761D01*
X138666190Y-64162380D01*
X138761428Y-64162380D01*
X138904285Y-64114761D01*
X138999523Y-64019523D01*
X139047142Y-63924285D01*
X139094761Y-63733809D01*
X139094761Y-63590952D01*
X139047142Y-63400476D01*
X138999523Y-63305238D01*
X138904285Y-63210000D01*
X138761428Y-63162380D01*
X138666190Y-63162380D01*
X138523333Y-63210000D01*
X138475714Y-63257619D01*
X137904285Y-64162380D02*
X137999523Y-64114761D01*
X138047142Y-64067142D01*
X138094761Y-63971904D01*
X138094761Y-63686190D01*
X138047142Y-63590952D01*
X137999523Y-63543333D01*
X137904285Y-63495714D01*
X137761428Y-63495714D01*
X137666190Y-63543333D01*
X137618571Y-63590952D01*
X137570952Y-63686190D01*
X137570952Y-63971904D01*
X137618571Y-64067142D01*
X137666190Y-64114761D01*
X137761428Y-64162380D01*
X137904285Y-64162380D01*
X136999523Y-64162380D02*
X137094761Y-64114761D01*
X137142380Y-64019523D01*
X137142380Y-63162380D01*
X136190000Y-63495714D02*
X136190000Y-64162380D01*
X136618571Y-63495714D02*
X136618571Y-64019523D01*
X136570952Y-64114761D01*
X136475714Y-64162380D01*
X136332857Y-64162380D01*
X136237619Y-64114761D01*
X136190000Y-64067142D01*
X135713809Y-64162380D02*
X135713809Y-63495714D01*
X135713809Y-63590952D02*
X135666190Y-63543333D01*
X135570952Y-63495714D01*
X135428095Y-63495714D01*
X135332857Y-63543333D01*
X135285238Y-63638571D01*
X135285238Y-64162380D01*
X135285238Y-63638571D02*
X135237619Y-63543333D01*
X135142380Y-63495714D01*
X134999523Y-63495714D01*
X134904285Y-63543333D01*
X134856666Y-63638571D01*
X134856666Y-64162380D01*
X134380476Y-63495714D02*
X134380476Y-64162380D01*
X134380476Y-63590952D02*
X134332857Y-63543333D01*
X134237619Y-63495714D01*
X134094761Y-63495714D01*
X133999523Y-63543333D01*
X133951904Y-63638571D01*
X133951904Y-64162380D01*
X132761428Y-63495714D02*
X132047142Y-63495714D01*
X132475714Y-63067142D02*
X132761428Y-64352857D01*
X132142380Y-63924285D02*
X132856666Y-63924285D01*
X132428095Y-64352857D02*
X132142380Y-63067142D01*
X155160476Y-66067380D02*
X155731904Y-66067380D01*
X155446190Y-66067380D02*
X155446190Y-65067380D01*
X155541428Y-65210238D01*
X155636666Y-65305476D01*
X155731904Y-65353095D01*
X154589047Y-65495952D02*
X154684285Y-65448333D01*
X154731904Y-65400714D01*
X154779523Y-65305476D01*
X154779523Y-65257857D01*
X154731904Y-65162619D01*
X154684285Y-65115000D01*
X154589047Y-65067380D01*
X154398571Y-65067380D01*
X154303333Y-65115000D01*
X154255714Y-65162619D01*
X154208095Y-65257857D01*
X154208095Y-65305476D01*
X154255714Y-65400714D01*
X154303333Y-65448333D01*
X154398571Y-65495952D01*
X154589047Y-65495952D01*
X154684285Y-65543571D01*
X154731904Y-65591190D01*
X154779523Y-65686428D01*
X154779523Y-65876904D01*
X154731904Y-65972142D01*
X154684285Y-66019761D01*
X154589047Y-66067380D01*
X154398571Y-66067380D01*
X154303333Y-66019761D01*
X154255714Y-65972142D01*
X154208095Y-65876904D01*
X154208095Y-65686428D01*
X154255714Y-65591190D01*
X154303333Y-65543571D01*
X154398571Y-65495952D01*
X157700476Y-121312380D02*
X158271904Y-121312380D01*
X157986190Y-121312380D02*
X157986190Y-120312380D01*
X158081428Y-120455238D01*
X158176666Y-120550476D01*
X158271904Y-120598095D01*
X157224285Y-121312380D02*
X157033809Y-121312380D01*
X156938571Y-121264761D01*
X156890952Y-121217142D01*
X156795714Y-121074285D01*
X156748095Y-120883809D01*
X156748095Y-120502857D01*
X156795714Y-120407619D01*
X156843333Y-120360000D01*
X156938571Y-120312380D01*
X157129047Y-120312380D01*
X157224285Y-120360000D01*
X157271904Y-120407619D01*
X157319523Y-120502857D01*
X157319523Y-120740952D01*
X157271904Y-120836190D01*
X157224285Y-120883809D01*
X157129047Y-120931428D01*
X156938571Y-120931428D01*
X156843333Y-120883809D01*
X156795714Y-120836190D01*
X156748095Y-120740952D01*
X164121904Y-95912380D02*
X164121904Y-94912380D01*
X163550476Y-95912380D02*
X163979047Y-95340952D01*
X163550476Y-94912380D02*
X164121904Y-95483809D01*
X108384761Y-84665714D02*
X108432380Y-84808571D01*
X108432380Y-85046666D01*
X108384761Y-85141904D01*
X108337142Y-85189523D01*
X108241904Y-85237142D01*
X108146666Y-85237142D01*
X108051428Y-85189523D01*
X108003809Y-85141904D01*
X107956190Y-85046666D01*
X107908571Y-84856190D01*
X107860952Y-84760952D01*
X107813333Y-84713333D01*
X107718095Y-84665714D01*
X107622857Y-84665714D01*
X107527619Y-84713333D01*
X107480000Y-84760952D01*
X107432380Y-84856190D01*
X107432380Y-85094285D01*
X107480000Y-85237142D01*
X108432380Y-85808571D02*
X108384761Y-85713333D01*
X108337142Y-85665714D01*
X108241904Y-85618095D01*
X107956190Y-85618095D01*
X107860952Y-85665714D01*
X107813333Y-85713333D01*
X107765714Y-85808571D01*
X107765714Y-85951428D01*
X107813333Y-86046666D01*
X107860952Y-86094285D01*
X107956190Y-86141904D01*
X108241904Y-86141904D01*
X108337142Y-86094285D01*
X108384761Y-86046666D01*
X108432380Y-85951428D01*
X108432380Y-85808571D01*
X108384761Y-86999047D02*
X108432380Y-86903809D01*
X108432380Y-86713333D01*
X108384761Y-86618095D01*
X108337142Y-86570476D01*
X108241904Y-86522857D01*
X107956190Y-86522857D01*
X107860952Y-86570476D01*
X107813333Y-86618095D01*
X107765714Y-86713333D01*
X107765714Y-86903809D01*
X107813333Y-86999047D01*
X108432380Y-87427619D02*
X107432380Y-87427619D01*
X108051428Y-87522857D02*
X108432380Y-87808571D01*
X107765714Y-87808571D02*
X108146666Y-87427619D01*
X108384761Y-88618095D02*
X108432380Y-88522857D01*
X108432380Y-88332380D01*
X108384761Y-88237142D01*
X108289523Y-88189523D01*
X107908571Y-88189523D01*
X107813333Y-88237142D01*
X107765714Y-88332380D01*
X107765714Y-88522857D01*
X107813333Y-88618095D01*
X107908571Y-88665714D01*
X108003809Y-88665714D01*
X108099047Y-88189523D01*
X107765714Y-88951428D02*
X107765714Y-89332380D01*
X107432380Y-89094285D02*
X108289523Y-89094285D01*
X108384761Y-89141904D01*
X108432380Y-89237142D01*
X108432380Y-89332380D01*
X108432380Y-90427619D02*
X107432380Y-90427619D01*
X107432380Y-90808571D01*
X107480000Y-90903809D01*
X107527619Y-90951428D01*
X107622857Y-90999047D01*
X107765714Y-90999047D01*
X107860952Y-90951428D01*
X107908571Y-90903809D01*
X107956190Y-90808571D01*
X107956190Y-90427619D01*
X108432380Y-91427619D02*
X107765714Y-91427619D01*
X107432380Y-91427619D02*
X107480000Y-91380000D01*
X107527619Y-91427619D01*
X107480000Y-91475238D01*
X107432380Y-91427619D01*
X107527619Y-91427619D01*
X107765714Y-91903809D02*
X108432380Y-91903809D01*
X107860952Y-91903809D02*
X107813333Y-91951428D01*
X107765714Y-92046666D01*
X107765714Y-92189523D01*
X107813333Y-92284761D01*
X107908571Y-92332380D01*
X108432380Y-92332380D01*
X108432380Y-94141904D02*
X107956190Y-93808571D01*
X108432380Y-93570476D02*
X107432380Y-93570476D01*
X107432380Y-93951428D01*
X107480000Y-94046666D01*
X107527619Y-94094285D01*
X107622857Y-94141904D01*
X107765714Y-94141904D01*
X107860952Y-94094285D01*
X107908571Y-94046666D01*
X107956190Y-93951428D01*
X107956190Y-93570476D01*
X108432380Y-94713333D02*
X108384761Y-94618095D01*
X108337142Y-94570476D01*
X108241904Y-94522857D01*
X107956190Y-94522857D01*
X107860952Y-94570476D01*
X107813333Y-94618095D01*
X107765714Y-94713333D01*
X107765714Y-94856190D01*
X107813333Y-94951428D01*
X107860952Y-94999047D01*
X107956190Y-95046666D01*
X108241904Y-95046666D01*
X108337142Y-94999047D01*
X108384761Y-94951428D01*
X108432380Y-94856190D01*
X108432380Y-94713333D01*
X107765714Y-95380000D02*
X108432380Y-95570476D01*
X107956190Y-95760952D01*
X108432380Y-95951428D01*
X107765714Y-96141904D01*
X147540476Y-121312380D02*
X148111904Y-121312380D01*
X147826190Y-121312380D02*
X147826190Y-120312380D01*
X147921428Y-120455238D01*
X148016666Y-120550476D01*
X148111904Y-120598095D01*
X146635714Y-120312380D02*
X147111904Y-120312380D01*
X147159523Y-120788571D01*
X147111904Y-120740952D01*
X147016666Y-120693333D01*
X146778571Y-120693333D01*
X146683333Y-120740952D01*
X146635714Y-120788571D01*
X146588095Y-120883809D01*
X146588095Y-121121904D01*
X146635714Y-121217142D01*
X146683333Y-121264761D01*
X146778571Y-121312380D01*
X147016666Y-121312380D01*
X147111904Y-121264761D01*
X147159523Y-121217142D01*
X119219523Y-65400714D02*
X119219523Y-66067380D01*
X119457619Y-65019761D02*
X119695714Y-65734047D01*
X119076666Y-65734047D01*
X110218333Y-66972380D02*
X109551666Y-67972380D01*
X109551666Y-66972380D02*
X110218333Y-67972380D01*
X160811904Y-65162619D02*
X160764285Y-65115000D01*
X160669047Y-65067380D01*
X160430952Y-65067380D01*
X160335714Y-65115000D01*
X160288095Y-65162619D01*
X160240476Y-65257857D01*
X160240476Y-65353095D01*
X160288095Y-65495952D01*
X160859523Y-66067380D01*
X160240476Y-66067380D01*
X159621428Y-65067380D02*
X159526190Y-65067380D01*
X159430952Y-65115000D01*
X159383333Y-65162619D01*
X159335714Y-65257857D01*
X159288095Y-65448333D01*
X159288095Y-65686428D01*
X159335714Y-65876904D01*
X159383333Y-65972142D01*
X159430952Y-66019761D01*
X159526190Y-66067380D01*
X159621428Y-66067380D01*
X159716666Y-66019761D01*
X159764285Y-65972142D01*
X159811904Y-65876904D01*
X159859523Y-65686428D01*
X159859523Y-65448333D01*
X159811904Y-65257857D01*
X159764285Y-65162619D01*
X159716666Y-65115000D01*
X159621428Y-65067380D01*
X155160476Y-121312380D02*
X155731904Y-121312380D01*
X155446190Y-121312380D02*
X155446190Y-120312380D01*
X155541428Y-120455238D01*
X155636666Y-120550476D01*
X155731904Y-120598095D01*
X154589047Y-120740952D02*
X154684285Y-120693333D01*
X154731904Y-120645714D01*
X154779523Y-120550476D01*
X154779523Y-120502857D01*
X154731904Y-120407619D01*
X154684285Y-120360000D01*
X154589047Y-120312380D01*
X154398571Y-120312380D01*
X154303333Y-120360000D01*
X154255714Y-120407619D01*
X154208095Y-120502857D01*
X154208095Y-120550476D01*
X154255714Y-120645714D01*
X154303333Y-120693333D01*
X154398571Y-120740952D01*
X154589047Y-120740952D01*
X154684285Y-120788571D01*
X154731904Y-120836190D01*
X154779523Y-120931428D01*
X154779523Y-121121904D01*
X154731904Y-121217142D01*
X154684285Y-121264761D01*
X154589047Y-121312380D01*
X154398571Y-121312380D01*
X154303333Y-121264761D01*
X154255714Y-121217142D01*
X154208095Y-121121904D01*
X154208095Y-120931428D01*
X154255714Y-120836190D01*
X154303333Y-120788571D01*
X154398571Y-120740952D01*
X134840476Y-121312380D02*
X135411904Y-121312380D01*
X135126190Y-121312380D02*
X135126190Y-120312380D01*
X135221428Y-120455238D01*
X135316666Y-120550476D01*
X135411904Y-120598095D01*
X134221428Y-120312380D02*
X134126190Y-120312380D01*
X134030952Y-120360000D01*
X133983333Y-120407619D01*
X133935714Y-120502857D01*
X133888095Y-120693333D01*
X133888095Y-120931428D01*
X133935714Y-121121904D01*
X133983333Y-121217142D01*
X134030952Y-121264761D01*
X134126190Y-121312380D01*
X134221428Y-121312380D01*
X134316666Y-121264761D01*
X134364285Y-121217142D01*
X134411904Y-121121904D01*
X134459523Y-120931428D01*
X134459523Y-120693333D01*
X134411904Y-120502857D01*
X134364285Y-120407619D01*
X134316666Y-120360000D01*
X134221428Y-120312380D01*
X110218333Y-90832380D02*
X110218333Y-89832380D01*
X109885000Y-90546666D01*
X109551666Y-89832380D01*
X109551666Y-90832380D01*
X150080476Y-66067380D02*
X150651904Y-66067380D01*
X150366190Y-66067380D02*
X150366190Y-65067380D01*
X150461428Y-65210238D01*
X150556666Y-65305476D01*
X150651904Y-65353095D01*
X149223333Y-65067380D02*
X149413809Y-65067380D01*
X149509047Y-65115000D01*
X149556666Y-65162619D01*
X149651904Y-65305476D01*
X149699523Y-65495952D01*
X149699523Y-65876904D01*
X149651904Y-65972142D01*
X149604285Y-66019761D01*
X149509047Y-66067380D01*
X149318571Y-66067380D01*
X149223333Y-66019761D01*
X149175714Y-65972142D01*
X149128095Y-65876904D01*
X149128095Y-65638809D01*
X149175714Y-65543571D01*
X149223333Y-65495952D01*
X149318571Y-65448333D01*
X149509047Y-65448333D01*
X149604285Y-65495952D01*
X149651904Y-65543571D01*
X149699523Y-65638809D01*
X124299523Y-120312380D02*
X124490000Y-120312380D01*
X124585238Y-120360000D01*
X124632857Y-120407619D01*
X124728095Y-120550476D01*
X124775714Y-120740952D01*
X124775714Y-121121904D01*
X124728095Y-121217142D01*
X124680476Y-121264761D01*
X124585238Y-121312380D01*
X124394761Y-121312380D01*
X124299523Y-121264761D01*
X124251904Y-121217142D01*
X124204285Y-121121904D01*
X124204285Y-120883809D01*
X124251904Y-120788571D01*
X124299523Y-120740952D01*
X124394761Y-120693333D01*
X124585238Y-120693333D01*
X124680476Y-120740952D01*
X124728095Y-120788571D01*
X124775714Y-120883809D01*
X121711904Y-65067380D02*
X122188095Y-65067380D01*
X122235714Y-65543571D01*
X122188095Y-65495952D01*
X122092857Y-65448333D01*
X121854761Y-65448333D01*
X121759523Y-65495952D01*
X121711904Y-65543571D01*
X121664285Y-65638809D01*
X121664285Y-65876904D01*
X121711904Y-65972142D01*
X121759523Y-66019761D01*
X121854761Y-66067380D01*
X122092857Y-66067380D01*
X122188095Y-66019761D01*
X122235714Y-65972142D01*
X110170714Y-80624761D02*
X110027857Y-80672380D01*
X109789761Y-80672380D01*
X109694523Y-80624761D01*
X109646904Y-80577142D01*
X109599285Y-80481904D01*
X109599285Y-80386666D01*
X109646904Y-80291428D01*
X109694523Y-80243809D01*
X109789761Y-80196190D01*
X109980238Y-80148571D01*
X110075476Y-80100952D01*
X110123095Y-80053333D01*
X110170714Y-79958095D01*
X110170714Y-79862857D01*
X110123095Y-79767619D01*
X110075476Y-79720000D01*
X109980238Y-79672380D01*
X109742142Y-79672380D01*
X109599285Y-79720000D01*
X110313571Y-69512380D02*
X110075476Y-70512380D01*
X109885000Y-69798095D01*
X109694523Y-70512380D01*
X109456428Y-69512380D01*
X142460476Y-66067380D02*
X143031904Y-66067380D01*
X142746190Y-66067380D02*
X142746190Y-65067380D01*
X142841428Y-65210238D01*
X142936666Y-65305476D01*
X143031904Y-65353095D01*
X142127142Y-65067380D02*
X141508095Y-65067380D01*
X141841428Y-65448333D01*
X141698571Y-65448333D01*
X141603333Y-65495952D01*
X141555714Y-65543571D01*
X141508095Y-65638809D01*
X141508095Y-65876904D01*
X141555714Y-65972142D01*
X141603333Y-66019761D01*
X141698571Y-66067380D01*
X141984285Y-66067380D01*
X142079523Y-66019761D01*
X142127142Y-65972142D01*
X145000476Y-121312380D02*
X145571904Y-121312380D01*
X145286190Y-121312380D02*
X145286190Y-120312380D01*
X145381428Y-120455238D01*
X145476666Y-120550476D01*
X145571904Y-120598095D01*
X144143333Y-120645714D02*
X144143333Y-121312380D01*
X144381428Y-120264761D02*
X144619523Y-120979047D01*
X144000476Y-120979047D01*
X152620476Y-121312380D02*
X153191904Y-121312380D01*
X152906190Y-121312380D02*
X152906190Y-120312380D01*
X153001428Y-120455238D01*
X153096666Y-120550476D01*
X153191904Y-120598095D01*
X152287142Y-120312380D02*
X151620476Y-120312380D01*
X152049047Y-121312380D01*
X110218333Y-72052380D02*
X109885000Y-73052380D01*
X109551666Y-72052380D01*
X163860000Y-70036190D02*
X163860000Y-70512380D01*
X164193333Y-69512380D02*
X163860000Y-70036190D01*
X163526666Y-69512380D01*
X164145714Y-100992380D02*
X164145714Y-99992380D01*
X164145714Y-100468571D02*
X163574285Y-100468571D01*
X163574285Y-100992380D02*
X163574285Y-99992380D01*
X110146904Y-111152380D02*
X110146904Y-110152380D01*
X109908809Y-110152380D01*
X109765952Y-110200000D01*
X109670714Y-110295238D01*
X109623095Y-110390476D01*
X109575476Y-110580952D01*
X109575476Y-110723809D01*
X109623095Y-110914285D01*
X109670714Y-111009523D01*
X109765952Y-111104761D01*
X109908809Y-111152380D01*
X110146904Y-111152380D01*
X166217380Y-84070476D02*
X165217380Y-84070476D01*
X165217380Y-84451428D01*
X165265000Y-84546666D01*
X165312619Y-84594285D01*
X165407857Y-84641904D01*
X165550714Y-84641904D01*
X165645952Y-84594285D01*
X165693571Y-84546666D01*
X165741190Y-84451428D01*
X165741190Y-84070476D01*
X166217380Y-85499047D02*
X165693571Y-85499047D01*
X165598333Y-85451428D01*
X165550714Y-85356190D01*
X165550714Y-85165714D01*
X165598333Y-85070476D01*
X166169761Y-85499047D02*
X166217380Y-85403809D01*
X166217380Y-85165714D01*
X166169761Y-85070476D01*
X166074523Y-85022857D01*
X165979285Y-85022857D01*
X165884047Y-85070476D01*
X165836428Y-85165714D01*
X165836428Y-85403809D01*
X165788809Y-85499047D01*
X166169761Y-86403809D02*
X166217380Y-86308571D01*
X166217380Y-86118095D01*
X166169761Y-86022857D01*
X166122142Y-85975238D01*
X166026904Y-85927619D01*
X165741190Y-85927619D01*
X165645952Y-85975238D01*
X165598333Y-86022857D01*
X165550714Y-86118095D01*
X165550714Y-86308571D01*
X165598333Y-86403809D01*
X166217380Y-86832380D02*
X165217380Y-86832380D01*
X165836428Y-86927619D02*
X166217380Y-87213333D01*
X165550714Y-87213333D02*
X165931666Y-86832380D01*
X166217380Y-88070476D02*
X165693571Y-88070476D01*
X165598333Y-88022857D01*
X165550714Y-87927619D01*
X165550714Y-87737142D01*
X165598333Y-87641904D01*
X166169761Y-88070476D02*
X166217380Y-87975238D01*
X166217380Y-87737142D01*
X166169761Y-87641904D01*
X166074523Y-87594285D01*
X165979285Y-87594285D01*
X165884047Y-87641904D01*
X165836428Y-87737142D01*
X165836428Y-87975238D01*
X165788809Y-88070476D01*
X165550714Y-88975238D02*
X166360238Y-88975238D01*
X166455476Y-88927619D01*
X166503095Y-88880000D01*
X166550714Y-88784761D01*
X166550714Y-88641904D01*
X166503095Y-88546666D01*
X166169761Y-88975238D02*
X166217380Y-88880000D01*
X166217380Y-88689523D01*
X166169761Y-88594285D01*
X166122142Y-88546666D01*
X166026904Y-88499047D01*
X165741190Y-88499047D01*
X165645952Y-88546666D01*
X165598333Y-88594285D01*
X165550714Y-88689523D01*
X165550714Y-88880000D01*
X165598333Y-88975238D01*
X166169761Y-89832380D02*
X166217380Y-89737142D01*
X166217380Y-89546666D01*
X166169761Y-89451428D01*
X166074523Y-89403809D01*
X165693571Y-89403809D01*
X165598333Y-89451428D01*
X165550714Y-89546666D01*
X165550714Y-89737142D01*
X165598333Y-89832380D01*
X165693571Y-89880000D01*
X165788809Y-89880000D01*
X165884047Y-89403809D01*
X166217380Y-91070476D02*
X165217380Y-91070476D01*
X165217380Y-91451428D01*
X165265000Y-91546666D01*
X165312619Y-91594285D01*
X165407857Y-91641904D01*
X165550714Y-91641904D01*
X165645952Y-91594285D01*
X165693571Y-91546666D01*
X165741190Y-91451428D01*
X165741190Y-91070476D01*
X166217380Y-92070476D02*
X165550714Y-92070476D01*
X165217380Y-92070476D02*
X165265000Y-92022857D01*
X165312619Y-92070476D01*
X165265000Y-92118095D01*
X165217380Y-92070476D01*
X165312619Y-92070476D01*
X165550714Y-92546666D02*
X166217380Y-92546666D01*
X165645952Y-92546666D02*
X165598333Y-92594285D01*
X165550714Y-92689523D01*
X165550714Y-92832380D01*
X165598333Y-92927619D01*
X165693571Y-92975238D01*
X166217380Y-92975238D01*
X166217380Y-94784761D02*
X165741190Y-94451428D01*
X166217380Y-94213333D02*
X165217380Y-94213333D01*
X165217380Y-94594285D01*
X165265000Y-94689523D01*
X165312619Y-94737142D01*
X165407857Y-94784761D01*
X165550714Y-94784761D01*
X165645952Y-94737142D01*
X165693571Y-94689523D01*
X165741190Y-94594285D01*
X165741190Y-94213333D01*
X166217380Y-95356190D02*
X166169761Y-95260952D01*
X166122142Y-95213333D01*
X166026904Y-95165714D01*
X165741190Y-95165714D01*
X165645952Y-95213333D01*
X165598333Y-95260952D01*
X165550714Y-95356190D01*
X165550714Y-95499047D01*
X165598333Y-95594285D01*
X165645952Y-95641904D01*
X165741190Y-95689523D01*
X166026904Y-95689523D01*
X166122142Y-95641904D01*
X166169761Y-95594285D01*
X166217380Y-95499047D01*
X166217380Y-95356190D01*
X165550714Y-96022857D02*
X166217380Y-96213333D01*
X165741190Y-96403809D01*
X166217380Y-96594285D01*
X165550714Y-96784761D01*
X127363333Y-120312380D02*
X126696666Y-120312380D01*
X127125238Y-121312380D01*
X145000476Y-66067380D02*
X145571904Y-66067380D01*
X145286190Y-66067380D02*
X145286190Y-65067380D01*
X145381428Y-65210238D01*
X145476666Y-65305476D01*
X145571904Y-65353095D01*
X144143333Y-65400714D02*
X144143333Y-66067380D01*
X144381428Y-65019761D02*
X144619523Y-65734047D01*
X144000476Y-65734047D01*
X114615714Y-120407619D02*
X114568095Y-120360000D01*
X114472857Y-120312380D01*
X114234761Y-120312380D01*
X114139523Y-120360000D01*
X114091904Y-120407619D01*
X114044285Y-120502857D01*
X114044285Y-120598095D01*
X114091904Y-120740952D01*
X114663333Y-121312380D01*
X114044285Y-121312380D01*
X164288571Y-72052380D02*
X164050476Y-73052380D01*
X163860000Y-72338095D01*
X163669523Y-73052380D01*
X163431428Y-72052380D01*
X157700476Y-66067380D02*
X158271904Y-66067380D01*
X157986190Y-66067380D02*
X157986190Y-65067380D01*
X158081428Y-65210238D01*
X158176666Y-65305476D01*
X158271904Y-65353095D01*
X157224285Y-66067380D02*
X157033809Y-66067380D01*
X156938571Y-66019761D01*
X156890952Y-65972142D01*
X156795714Y-65829285D01*
X156748095Y-65638809D01*
X156748095Y-65257857D01*
X156795714Y-65162619D01*
X156843333Y-65115000D01*
X156938571Y-65067380D01*
X157129047Y-65067380D01*
X157224285Y-65115000D01*
X157271904Y-65162619D01*
X157319523Y-65257857D01*
X157319523Y-65495952D01*
X157271904Y-65591190D01*
X157224285Y-65638809D01*
X157129047Y-65686428D01*
X156938571Y-65686428D01*
X156843333Y-65638809D01*
X156795714Y-65591190D01*
X156748095Y-65495952D01*
X147540476Y-66067380D02*
X148111904Y-66067380D01*
X147826190Y-66067380D02*
X147826190Y-65067380D01*
X147921428Y-65210238D01*
X148016666Y-65305476D01*
X148111904Y-65353095D01*
X146635714Y-65067380D02*
X147111904Y-65067380D01*
X147159523Y-65543571D01*
X147111904Y-65495952D01*
X147016666Y-65448333D01*
X146778571Y-65448333D01*
X146683333Y-65495952D01*
X146635714Y-65543571D01*
X146588095Y-65638809D01*
X146588095Y-65876904D01*
X146635714Y-65972142D01*
X146683333Y-66019761D01*
X146778571Y-66067380D01*
X147016666Y-66067380D01*
X147111904Y-66019761D01*
X147159523Y-65972142D01*
X109813571Y-115708571D02*
X109670714Y-115756190D01*
X109623095Y-115803809D01*
X109575476Y-115899047D01*
X109575476Y-116041904D01*
X109623095Y-116137142D01*
X109670714Y-116184761D01*
X109765952Y-116232380D01*
X110146904Y-116232380D01*
X110146904Y-115232380D01*
X109813571Y-115232380D01*
X109718333Y-115280000D01*
X109670714Y-115327619D01*
X109623095Y-115422857D01*
X109623095Y-115518095D01*
X109670714Y-115613333D01*
X109718333Y-115660952D01*
X109813571Y-115708571D01*
X110146904Y-115708571D01*
X163351904Y-120407619D02*
X163304285Y-120360000D01*
X163209047Y-120312380D01*
X162970952Y-120312380D01*
X162875714Y-120360000D01*
X162828095Y-120407619D01*
X162780476Y-120502857D01*
X162780476Y-120598095D01*
X162828095Y-120740952D01*
X163399523Y-121312380D01*
X162780476Y-121312380D01*
X161828095Y-121312380D02*
X162399523Y-121312380D01*
X162113809Y-121312380D02*
X162113809Y-120312380D01*
X162209047Y-120455238D01*
X162304285Y-120550476D01*
X162399523Y-120598095D01*
X110170714Y-100992380D02*
X110170714Y-99992380D01*
X110170714Y-100468571D02*
X109599285Y-100468571D01*
X109599285Y-100992380D02*
X109599285Y-99992380D01*
X109742142Y-97452380D02*
X109742142Y-98166666D01*
X109789761Y-98309523D01*
X109885000Y-98404761D01*
X110027857Y-98452380D01*
X110123095Y-98452380D01*
X164193333Y-90832380D02*
X164193333Y-89832380D01*
X163860000Y-90546666D01*
X163526666Y-89832380D01*
X163526666Y-90832380D01*
X142190000Y-123217380D02*
X142190000Y-122217380D01*
X141809047Y-122217380D01*
X141713809Y-122265000D01*
X141666190Y-122312619D01*
X141618571Y-122407857D01*
X141618571Y-122550714D01*
X141666190Y-122645952D01*
X141713809Y-122693571D01*
X141809047Y-122741190D01*
X142190000Y-122741190D01*
X141190000Y-123217380D02*
X141190000Y-122550714D01*
X141190000Y-122217380D02*
X141237619Y-122265000D01*
X141190000Y-122312619D01*
X141142380Y-122265000D01*
X141190000Y-122217380D01*
X141190000Y-122312619D01*
X140713809Y-122550714D02*
X140713809Y-123217380D01*
X140713809Y-122645952D02*
X140666190Y-122598333D01*
X140570952Y-122550714D01*
X140428095Y-122550714D01*
X140332857Y-122598333D01*
X140285238Y-122693571D01*
X140285238Y-123217380D01*
X138475714Y-123122142D02*
X138523333Y-123169761D01*
X138666190Y-123217380D01*
X138761428Y-123217380D01*
X138904285Y-123169761D01*
X138999523Y-123074523D01*
X139047142Y-122979285D01*
X139094761Y-122788809D01*
X139094761Y-122645952D01*
X139047142Y-122455476D01*
X138999523Y-122360238D01*
X138904285Y-122265000D01*
X138761428Y-122217380D01*
X138666190Y-122217380D01*
X138523333Y-122265000D01*
X138475714Y-122312619D01*
X137904285Y-123217380D02*
X137999523Y-123169761D01*
X138047142Y-123122142D01*
X138094761Y-123026904D01*
X138094761Y-122741190D01*
X138047142Y-122645952D01*
X137999523Y-122598333D01*
X137904285Y-122550714D01*
X137761428Y-122550714D01*
X137666190Y-122598333D01*
X137618571Y-122645952D01*
X137570952Y-122741190D01*
X137570952Y-123026904D01*
X137618571Y-123122142D01*
X137666190Y-123169761D01*
X137761428Y-123217380D01*
X137904285Y-123217380D01*
X136999523Y-123217380D02*
X137094761Y-123169761D01*
X137142380Y-123074523D01*
X137142380Y-122217380D01*
X136190000Y-122550714D02*
X136190000Y-123217380D01*
X136618571Y-122550714D02*
X136618571Y-123074523D01*
X136570952Y-123169761D01*
X136475714Y-123217380D01*
X136332857Y-123217380D01*
X136237619Y-123169761D01*
X136190000Y-123122142D01*
X135713809Y-123217380D02*
X135713809Y-122550714D01*
X135713809Y-122645952D02*
X135666190Y-122598333D01*
X135570952Y-122550714D01*
X135428095Y-122550714D01*
X135332857Y-122598333D01*
X135285238Y-122693571D01*
X135285238Y-123217380D01*
X135285238Y-122693571D02*
X135237619Y-122598333D01*
X135142380Y-122550714D01*
X134999523Y-122550714D01*
X134904285Y-122598333D01*
X134856666Y-122693571D01*
X134856666Y-123217380D01*
X134380476Y-122550714D02*
X134380476Y-123217380D01*
X134380476Y-122645952D02*
X134332857Y-122598333D01*
X134237619Y-122550714D01*
X134094761Y-122550714D01*
X133999523Y-122598333D01*
X133951904Y-122693571D01*
X133951904Y-123217380D01*
X132761428Y-122550714D02*
X132047142Y-122550714D01*
X132475714Y-122122142D02*
X132761428Y-123407857D01*
X132142380Y-122979285D02*
X132856666Y-122979285D01*
X132428095Y-123407857D02*
X132142380Y-122122142D01*
X109742142Y-105548571D02*
X110075476Y-105548571D01*
X110075476Y-106072380D02*
X110075476Y-105072380D01*
X109599285Y-105072380D01*
X163550476Y-113597142D02*
X163598095Y-113644761D01*
X163740952Y-113692380D01*
X163836190Y-113692380D01*
X163979047Y-113644761D01*
X164074285Y-113549523D01*
X164121904Y-113454285D01*
X164169523Y-113263809D01*
X164169523Y-113120952D01*
X164121904Y-112930476D01*
X164074285Y-112835238D01*
X163979047Y-112740000D01*
X163836190Y-112692380D01*
X163740952Y-112692380D01*
X163598095Y-112740000D01*
X163550476Y-112787619D01*
X110146904Y-95912380D02*
X110146904Y-94912380D01*
X109575476Y-95912380D02*
X110004047Y-95340952D01*
X109575476Y-94912380D02*
X110146904Y-95483809D01*
X163717142Y-105548571D02*
X164050476Y-105548571D01*
X164050476Y-106072380D02*
X164050476Y-105072380D01*
X163574285Y-105072380D01*
%TO.C,J1*%
X82278333Y-123027380D02*
X82278333Y-123741666D01*
X82325952Y-123884523D01*
X82421190Y-123979761D01*
X82564047Y-124027380D01*
X82659285Y-124027380D01*
X81278333Y-124027380D02*
X81849761Y-124027380D01*
X81564047Y-124027380D02*
X81564047Y-123027380D01*
X81659285Y-123170238D01*
X81754523Y-123265476D01*
X81849761Y-123313095D01*
D11*
X82815000Y-121625000D02*
X82815000Y-122515000D01*
X89395000Y-65625000D02*
X89395000Y-121625000D01*
X82815000Y-122515000D02*
X81075000Y-122515000D01*
X81075000Y-121625000D02*
X74495000Y-121625000D01*
X74245000Y-121855000D02*
X75245000Y-121855000D01*
X74245000Y-120855000D02*
X74245000Y-121855000D01*
X81075000Y-122515000D02*
X81075000Y-121625000D01*
X74495000Y-65625000D02*
X89395000Y-65625000D01*
X74495000Y-121625000D02*
X74495000Y-65625000D01*
X89395000Y-121625000D02*
X82815000Y-121625000D01*
%TD*%
M02*
