%TF.GenerationSoftware,KiCad,Pcbnew,(6.0.9-0)*%
%TF.CreationDate,2022-12-19T14:05:18-05:00*%
%TF.ProjectId,ember-pcb,656d6265-722d-4706-9362-2e6b69636164,rev?*%
%TF.SameCoordinates,Original*%
%TF.FileFunction,Paste,Top*%
%TF.FilePolarity,Positive*%
%FSLAX46Y46*%
G04 Gerber Fmt 4.6, Leading zero omitted, Abs format (unit mm)*
G04 Created by KiCad (PCBNEW (6.0.9-0)) date 2022-12-19 14:05:18*
%MOMM*%
%LPD*%
G01*
G04 APERTURE LIST*
G04 Aperture macros list*
%AMRoundRect*
0 Rectangle with rounded corners*
0 $1 Rounding radius*
0 $2 $3 $4 $5 $6 $7 $8 $9 X,Y pos of 4 corners*
0 Add a 4 corners polygon primitive as box body*
4,1,4,$2,$3,$4,$5,$6,$7,$8,$9,$2,$3,0*
0 Add four circle primitives for the rounded corners*
1,1,$1+$1,$2,$3*
1,1,$1+$1,$4,$5*
1,1,$1+$1,$6,$7*
1,1,$1+$1,$8,$9*
0 Add four rect primitives between the rounded corners*
20,1,$1+$1,$2,$3,$4,$5,0*
20,1,$1+$1,$4,$5,$6,$7,0*
20,1,$1+$1,$6,$7,$8,$9,0*
20,1,$1+$1,$8,$9,$2,$3,0*%
G04 Aperture macros list end*
%ADD10RoundRect,0.200000X-0.275000X0.200000X-0.275000X-0.200000X0.275000X-0.200000X0.275000X0.200000X0*%
%ADD11R,1.000000X0.800000*%
%ADD12R,0.700000X1.500000*%
%ADD13RoundRect,0.250000X0.925000X-0.412500X0.925000X0.412500X-0.925000X0.412500X-0.925000X-0.412500X0*%
%ADD14RoundRect,0.250000X-0.925000X0.412500X-0.925000X-0.412500X0.925000X-0.412500X0.925000X0.412500X0*%
%ADD15RoundRect,0.200000X-0.200000X-0.275000X0.200000X-0.275000X0.200000X0.275000X-0.200000X0.275000X0*%
%ADD16RoundRect,0.250000X-1.100000X0.325000X-1.100000X-0.325000X1.100000X-0.325000X1.100000X0.325000X0*%
%ADD17RoundRect,0.172500X-0.262500X-0.172500X0.262500X-0.172500X0.262500X0.172500X-0.262500X0.172500X0*%
%ADD18RoundRect,0.093750X-0.093750X-0.106250X0.093750X-0.106250X0.093750X0.106250X-0.093750X0.106250X0*%
%ADD19RoundRect,0.250000X1.100000X-0.325000X1.100000X0.325000X-1.100000X0.325000X-1.100000X-0.325000X0*%
%ADD20RoundRect,0.218750X-0.218750X-0.256250X0.218750X-0.256250X0.218750X0.256250X-0.218750X0.256250X0*%
%ADD21R,1.500000X1.100000*%
G04 APERTURE END LIST*
D10*
%TO.C,R2*%
X174020000Y-117495000D03*
X174020000Y-119145000D03*
%TD*%
D11*
%TO.C,SW2*%
X87735000Y-143030000D03*
X77435000Y-143030000D03*
X87735000Y-140820000D03*
X77435000Y-140820000D03*
D12*
X79585000Y-140170000D03*
X81085000Y-140170000D03*
X84085000Y-140170000D03*
X85585000Y-140170000D03*
%TD*%
D13*
%TO.C,C8*%
X111940000Y-137632500D03*
X111940000Y-134557500D03*
%TD*%
D14*
%TO.C,C3*%
X111940000Y-128612500D03*
X111940000Y-131687500D03*
%TD*%
%TO.C,C1*%
X97970000Y-128437500D03*
X97970000Y-131512500D03*
%TD*%
D15*
%TO.C,R1*%
X82532742Y-125305000D03*
X84182742Y-125305000D03*
%TD*%
D13*
%TO.C,C6*%
X97965000Y-137632500D03*
X97965000Y-134557500D03*
%TD*%
D16*
%TO.C,C2*%
X104955000Y-128675000D03*
X104955000Y-131625000D03*
%TD*%
%TO.C,C5*%
X126140000Y-128675000D03*
X126140000Y-131625000D03*
%TD*%
D14*
%TO.C,C4*%
X118925000Y-128612500D03*
X118925000Y-131687500D03*
%TD*%
D13*
%TO.C,C9*%
X118925000Y-137632500D03*
X118925000Y-134557500D03*
%TD*%
D17*
%TO.C,U4*%
X91475000Y-139685000D03*
X91475000Y-138885000D03*
D18*
X90587500Y-138635000D03*
X90587500Y-139285000D03*
X90587500Y-139935000D03*
X92362500Y-139935000D03*
X92362500Y-139285000D03*
X92362500Y-138635000D03*
%TD*%
D19*
%TO.C,C10*%
X126140000Y-137570000D03*
X126140000Y-134620000D03*
%TD*%
D10*
%TO.C,R3*%
X175925000Y-117495000D03*
X175925000Y-119145000D03*
%TD*%
D11*
%TO.C,SW1*%
X77435000Y-134985000D03*
X77435000Y-132775000D03*
X87735000Y-134985000D03*
X87735000Y-132775000D03*
D12*
X79585000Y-132125000D03*
X81085000Y-132125000D03*
X84085000Y-132125000D03*
X85585000Y-132125000D03*
%TD*%
D20*
%TO.C,D1*%
X79205242Y-125305000D03*
X80780242Y-125305000D03*
%TD*%
D17*
%TO.C,U2*%
X91475000Y-130795000D03*
X91475000Y-129995000D03*
D18*
X90587500Y-129745000D03*
X90587500Y-130395000D03*
X90587500Y-131045000D03*
X92362500Y-131045000D03*
X92362500Y-130395000D03*
X92362500Y-129745000D03*
%TD*%
D21*
%TO.C,SW3*%
X175285000Y-109430000D03*
X175285000Y-111970000D03*
X184185000Y-111970000D03*
X184185000Y-109430000D03*
%TD*%
D19*
%TO.C,C7*%
X104955000Y-137570000D03*
X104955000Y-134620000D03*
%TD*%
D17*
%TO.C,U3*%
X91475000Y-134440000D03*
X91475000Y-135240000D03*
D18*
X90587500Y-134190000D03*
X90587500Y-134840000D03*
X90587500Y-135490000D03*
X92362500Y-135490000D03*
X92362500Y-134840000D03*
X92362500Y-134190000D03*
%TD*%
M02*
