%TF.GenerationSoftware,KiCad,Pcbnew,(6.0.9-0)*%
%TF.CreationDate,2022-12-19T14:05:18-05:00*%
%TF.ProjectId,ember-pcb,656d6265-722d-4706-9362-2e6b69636164,rev?*%
%TF.SameCoordinates,Original*%
%TF.FileFunction,Soldermask,Bot*%
%TF.FilePolarity,Negative*%
%FSLAX46Y46*%
G04 Gerber Fmt 4.6, Leading zero omitted, Abs format (unit mm)*
G04 Created by KiCad (PCBNEW (6.0.9-0)) date 2022-12-19 14:05:18*
%MOMM*%
%LPD*%
G01*
G04 APERTURE LIST*
%ADD10C,2.500000*%
%ADD11C,0.900000*%
%ADD12C,5.000000*%
%ADD13R,1.700000X1.700000*%
%ADD14O,1.700000X1.700000*%
%ADD15C,2.000000*%
%ADD16C,2.250000*%
%ADD17R,1.368000X1.368000*%
%ADD18C,1.368000*%
%ADD19C,1.270000*%
%ADD20C,0.640000*%
G04 APERTURE END LIST*
D10*
%TO.C,H3*%
X185577000Y-144990000D03*
%TD*%
D11*
%TO.C,SW2*%
X80085000Y-141930000D03*
X85085000Y-141930000D03*
%TD*%
D12*
%TO.C,H1*%
X72420000Y-51010000D03*
%TD*%
D13*
%TO.C,J3*%
X153060000Y-142455000D03*
D14*
X153060000Y-139915000D03*
X155600000Y-142455000D03*
X155600000Y-139915000D03*
X158140000Y-142455000D03*
X158140000Y-139915000D03*
X160680000Y-142455000D03*
X160680000Y-139915000D03*
X163220000Y-142455000D03*
X163220000Y-139915000D03*
X165760000Y-142455000D03*
X165760000Y-139915000D03*
X168300000Y-142455000D03*
X168300000Y-139915000D03*
X170840000Y-142455000D03*
X170840000Y-139915000D03*
X173380000Y-142455000D03*
X173380000Y-139915000D03*
X175920000Y-142455000D03*
X175920000Y-139915000D03*
X178460000Y-142455000D03*
X178460000Y-139915000D03*
X181000000Y-142455000D03*
X181000000Y-139915000D03*
%TD*%
D15*
%TO.C,FB1*%
X137165000Y-132710000D03*
X142245000Y-132710000D03*
%TD*%
D13*
%TO.C,J4*%
X184180000Y-73865000D03*
D14*
X184180000Y-76405000D03*
X184180000Y-78945000D03*
X184180000Y-81485000D03*
X184180000Y-84025000D03*
X184180000Y-86565000D03*
X184180000Y-89105000D03*
%TD*%
D15*
%TO.C,FB2*%
X137165000Y-141600000D03*
X142245000Y-141600000D03*
%TD*%
D10*
%TO.C,H4*%
X72420000Y-144990000D03*
%TD*%
D16*
%TO.C,J5*%
X99065000Y-143720000D03*
X101605000Y-146260000D03*
X96525000Y-141180000D03*
X96525000Y-146260000D03*
X101605000Y-141180000D03*
%TD*%
D11*
%TO.C,SW1*%
X80085000Y-133885000D03*
X85085000Y-133885000D03*
%TD*%
D16*
%TO.C,J2*%
X111765000Y-143720000D03*
X114305000Y-141180000D03*
X114305000Y-146260000D03*
X109225000Y-141180000D03*
X109225000Y-146260000D03*
%TD*%
D17*
%TO.C,U1*%
X111790000Y-118320000D03*
D18*
X114330000Y-118320000D03*
X116870000Y-118320000D03*
X119410000Y-118320000D03*
X121950000Y-118320000D03*
X124490000Y-118320000D03*
X127030000Y-118320000D03*
X129570000Y-118320000D03*
X132110000Y-118320000D03*
X134650000Y-118320000D03*
X137190000Y-118320000D03*
X139730000Y-118320000D03*
X142270000Y-118320000D03*
X144810000Y-118320000D03*
X147350000Y-118320000D03*
X149890000Y-118320000D03*
X152430000Y-118320000D03*
X154970000Y-118320000D03*
X157510000Y-118320000D03*
X160050000Y-118320000D03*
X162590000Y-118320000D03*
X111790000Y-115780000D03*
X114330000Y-115780000D03*
X116870000Y-115780000D03*
X119410000Y-115780000D03*
X121950000Y-115780000D03*
X124490000Y-115780000D03*
X127030000Y-115780000D03*
X129570000Y-115780000D03*
X132110000Y-115780000D03*
X134650000Y-115780000D03*
X137190000Y-115780000D03*
X139730000Y-115780000D03*
X142270000Y-115780000D03*
X144810000Y-115780000D03*
X147350000Y-115780000D03*
X149890000Y-115780000D03*
X152430000Y-115780000D03*
X154970000Y-115780000D03*
X157510000Y-115780000D03*
X160050000Y-115780000D03*
X162590000Y-115780000D03*
X111790000Y-113240000D03*
X114330000Y-113240000D03*
X116870000Y-113240000D03*
X119410000Y-113240000D03*
X121950000Y-113240000D03*
X124490000Y-113240000D03*
X127030000Y-113240000D03*
X129570000Y-113240000D03*
X132110000Y-113240000D03*
X134650000Y-113240000D03*
X137190000Y-113240000D03*
X139730000Y-113240000D03*
X142270000Y-113240000D03*
X144810000Y-113240000D03*
X147350000Y-113240000D03*
X149890000Y-113240000D03*
X152430000Y-113240000D03*
X154970000Y-113240000D03*
X157510000Y-113240000D03*
X160050000Y-113240000D03*
X162590000Y-113240000D03*
X111790000Y-110700000D03*
X114330000Y-110700000D03*
X116870000Y-110700000D03*
X119410000Y-110700000D03*
X121950000Y-110700000D03*
X124490000Y-110700000D03*
X127030000Y-110700000D03*
X129570000Y-110700000D03*
X132110000Y-110700000D03*
X134650000Y-110700000D03*
X137190000Y-110700000D03*
X139730000Y-110700000D03*
X142270000Y-110700000D03*
X144810000Y-110700000D03*
X147350000Y-110700000D03*
X149890000Y-110700000D03*
X152430000Y-110700000D03*
X154970000Y-110700000D03*
X157510000Y-110700000D03*
X160050000Y-110700000D03*
X162590000Y-110700000D03*
X111790000Y-108160000D03*
X114330000Y-108160000D03*
X116870000Y-108160000D03*
X119410000Y-108160000D03*
X121950000Y-108160000D03*
X124490000Y-108160000D03*
X127030000Y-108160000D03*
X129570000Y-108160000D03*
X132110000Y-108160000D03*
X134650000Y-108160000D03*
X137190000Y-108160000D03*
X139730000Y-108160000D03*
X142270000Y-108160000D03*
X144810000Y-108160000D03*
X147350000Y-108160000D03*
X149890000Y-108160000D03*
X152430000Y-108160000D03*
X154970000Y-108160000D03*
X157510000Y-108160000D03*
X160050000Y-108160000D03*
X162590000Y-108160000D03*
X111790000Y-105620000D03*
X114330000Y-105620000D03*
X116870000Y-105620000D03*
X119410000Y-105620000D03*
X121950000Y-105620000D03*
X124490000Y-105620000D03*
X127030000Y-105620000D03*
X129570000Y-105620000D03*
X132110000Y-105620000D03*
X134650000Y-105620000D03*
X137190000Y-105620000D03*
X139730000Y-105620000D03*
X142270000Y-105620000D03*
X144810000Y-105620000D03*
X147350000Y-105620000D03*
X149890000Y-105620000D03*
X152430000Y-105620000D03*
X154970000Y-105620000D03*
X157510000Y-105620000D03*
X160050000Y-105620000D03*
X162590000Y-105620000D03*
X111790000Y-103080000D03*
X114330000Y-103080000D03*
X116870000Y-103080000D03*
X119410000Y-103080000D03*
X121950000Y-103080000D03*
X124490000Y-103080000D03*
X127030000Y-103080000D03*
X129570000Y-103080000D03*
X132110000Y-103080000D03*
X134650000Y-103080000D03*
X137190000Y-103080000D03*
X139730000Y-103080000D03*
X142270000Y-103080000D03*
X144810000Y-103080000D03*
X147350000Y-103080000D03*
X149890000Y-103080000D03*
X152430000Y-103080000D03*
X154970000Y-103080000D03*
X157510000Y-103080000D03*
X160050000Y-103080000D03*
X162590000Y-103080000D03*
X111790000Y-100540000D03*
X114330000Y-100540000D03*
X116870000Y-100540000D03*
X119410000Y-100540000D03*
X121950000Y-100540000D03*
X124490000Y-100540000D03*
X127030000Y-100540000D03*
X129570000Y-100540000D03*
X132110000Y-100540000D03*
X134650000Y-100540000D03*
X137190000Y-100540000D03*
X139730000Y-100540000D03*
X142270000Y-100540000D03*
X144810000Y-100540000D03*
X147350000Y-100540000D03*
X149890000Y-100540000D03*
X152430000Y-100540000D03*
X154970000Y-100540000D03*
X157510000Y-100540000D03*
X160050000Y-100540000D03*
X162590000Y-100540000D03*
X111790000Y-98000000D03*
X114330000Y-98000000D03*
X116870000Y-98000000D03*
X119410000Y-98000000D03*
X121950000Y-98000000D03*
X124490000Y-98000000D03*
X127030000Y-98000000D03*
X129570000Y-98000000D03*
X132110000Y-98000000D03*
X134650000Y-98000000D03*
X137190000Y-98000000D03*
X139730000Y-98000000D03*
X142270000Y-98000000D03*
X144810000Y-98000000D03*
X147350000Y-98000000D03*
X149890000Y-98000000D03*
X152430000Y-98000000D03*
X154970000Y-98000000D03*
X157510000Y-98000000D03*
X160050000Y-98000000D03*
X162590000Y-98000000D03*
X111790000Y-95460000D03*
X114330000Y-95460000D03*
X116870000Y-95460000D03*
X119410000Y-95460000D03*
X121950000Y-95460000D03*
X124490000Y-95460000D03*
X127030000Y-95460000D03*
X129570000Y-95460000D03*
X132110000Y-95460000D03*
X134650000Y-95460000D03*
X137190000Y-95460000D03*
X139730000Y-95460000D03*
X142270000Y-95460000D03*
X144810000Y-95460000D03*
X147350000Y-95460000D03*
X149890000Y-95460000D03*
X152430000Y-95460000D03*
X154970000Y-95460000D03*
X157510000Y-95460000D03*
X160050000Y-95460000D03*
X162590000Y-95460000D03*
X111790000Y-92920000D03*
X114330000Y-92920000D03*
X116870000Y-92920000D03*
X119410000Y-92920000D03*
X121950000Y-92920000D03*
X124490000Y-92920000D03*
X127030000Y-92920000D03*
X129570000Y-92920000D03*
X132110000Y-92920000D03*
X134650000Y-92920000D03*
X137190000Y-92920000D03*
X139730000Y-92920000D03*
X142270000Y-92920000D03*
X144810000Y-92920000D03*
X147350000Y-92920000D03*
X149890000Y-92920000D03*
X152430000Y-92920000D03*
X154970000Y-92920000D03*
X157510000Y-92920000D03*
X160050000Y-92920000D03*
X162590000Y-92920000D03*
X111790000Y-90380000D03*
X114330000Y-90380000D03*
X116870000Y-90380000D03*
X119410000Y-90380000D03*
X121950000Y-90380000D03*
X124490000Y-90380000D03*
X127030000Y-90380000D03*
X129570000Y-90380000D03*
X132110000Y-90380000D03*
X134650000Y-90380000D03*
X137190000Y-90380000D03*
X139730000Y-90380000D03*
X142270000Y-90380000D03*
X144810000Y-90380000D03*
X147350000Y-90380000D03*
X149890000Y-90380000D03*
X152430000Y-90380000D03*
X154970000Y-90380000D03*
X157510000Y-90380000D03*
X160050000Y-90380000D03*
X162590000Y-90380000D03*
X111790000Y-87840000D03*
X114330000Y-87840000D03*
X116870000Y-87840000D03*
X119410000Y-87840000D03*
X121950000Y-87840000D03*
X124490000Y-87840000D03*
X127030000Y-87840000D03*
X129570000Y-87840000D03*
X132110000Y-87840000D03*
X134650000Y-87840000D03*
X137190000Y-87840000D03*
X139730000Y-87840000D03*
X142270000Y-87840000D03*
X144810000Y-87840000D03*
X147350000Y-87840000D03*
X149890000Y-87840000D03*
X152430000Y-87840000D03*
X154970000Y-87840000D03*
X157510000Y-87840000D03*
X160050000Y-87840000D03*
X162590000Y-87840000D03*
X111790000Y-85300000D03*
X114330000Y-85300000D03*
X116870000Y-85300000D03*
X119410000Y-85300000D03*
X121950000Y-85300000D03*
X124490000Y-85300000D03*
X127030000Y-85300000D03*
X129570000Y-85300000D03*
X132110000Y-85300000D03*
X134650000Y-85300000D03*
X137190000Y-85300000D03*
X139730000Y-85300000D03*
X142270000Y-85300000D03*
X144810000Y-85300000D03*
X147350000Y-85300000D03*
X149890000Y-85300000D03*
X152430000Y-85300000D03*
X154970000Y-85300000D03*
X157510000Y-85300000D03*
X160050000Y-85300000D03*
X162590000Y-85300000D03*
X111790000Y-82760000D03*
X114330000Y-82760000D03*
X116870000Y-82760000D03*
X119410000Y-82760000D03*
X121950000Y-82760000D03*
X124490000Y-82760000D03*
X127030000Y-82760000D03*
X129570000Y-82760000D03*
X132110000Y-82760000D03*
X134650000Y-82760000D03*
X137190000Y-82760000D03*
X139730000Y-82760000D03*
X142270000Y-82760000D03*
X144810000Y-82760000D03*
X147350000Y-82760000D03*
X149890000Y-82760000D03*
X152430000Y-82760000D03*
X154970000Y-82760000D03*
X157510000Y-82760000D03*
X160050000Y-82760000D03*
X162590000Y-82760000D03*
X111790000Y-80220000D03*
X114330000Y-80220000D03*
X116870000Y-80220000D03*
X119410000Y-80220000D03*
X121950000Y-80220000D03*
X124490000Y-80220000D03*
X127030000Y-80220000D03*
X129570000Y-80220000D03*
X132110000Y-80220000D03*
X134650000Y-80220000D03*
X137190000Y-80220000D03*
X139730000Y-80220000D03*
X142270000Y-80220000D03*
X144810000Y-80220000D03*
X147350000Y-80220000D03*
X149890000Y-80220000D03*
X152430000Y-80220000D03*
X154970000Y-80220000D03*
X157510000Y-80220000D03*
X160050000Y-80220000D03*
X162590000Y-80220000D03*
X111790000Y-77680000D03*
X114330000Y-77680000D03*
X116870000Y-77680000D03*
X119410000Y-77680000D03*
X121950000Y-77680000D03*
X124490000Y-77680000D03*
X127030000Y-77680000D03*
X129570000Y-77680000D03*
X132110000Y-77680000D03*
X134650000Y-77680000D03*
X137190000Y-77680000D03*
X139730000Y-77680000D03*
X142270000Y-77680000D03*
X144810000Y-77680000D03*
X147350000Y-77680000D03*
X149890000Y-77680000D03*
X152430000Y-77680000D03*
X154970000Y-77680000D03*
X157510000Y-77680000D03*
X160050000Y-77680000D03*
X162590000Y-77680000D03*
X111790000Y-75140000D03*
X114330000Y-75140000D03*
X116870000Y-75140000D03*
X119410000Y-75140000D03*
X121950000Y-75140000D03*
X124490000Y-75140000D03*
X127030000Y-75140000D03*
X129570000Y-75140000D03*
X132110000Y-75140000D03*
X134650000Y-75140000D03*
X137190000Y-75140000D03*
X139730000Y-75140000D03*
X142270000Y-75140000D03*
X144810000Y-75140000D03*
X147350000Y-75140000D03*
X149890000Y-75140000D03*
X152430000Y-75140000D03*
X154970000Y-75140000D03*
X157510000Y-75140000D03*
X160050000Y-75140000D03*
X162590000Y-75140000D03*
X111790000Y-72600000D03*
X114330000Y-72600000D03*
X116870000Y-72600000D03*
X119410000Y-72600000D03*
X121950000Y-72600000D03*
X124490000Y-72600000D03*
X127030000Y-72600000D03*
X129570000Y-72600000D03*
X132110000Y-72600000D03*
X134650000Y-72600000D03*
X137190000Y-72600000D03*
X139730000Y-72600000D03*
X142270000Y-72600000D03*
X144810000Y-72600000D03*
X147350000Y-72600000D03*
X149890000Y-72600000D03*
X152430000Y-72600000D03*
X154970000Y-72600000D03*
X157510000Y-72600000D03*
X160050000Y-72600000D03*
X162590000Y-72600000D03*
X111790000Y-70060000D03*
X114330000Y-70060000D03*
X116870000Y-70060000D03*
X119410000Y-70060000D03*
X121950000Y-70060000D03*
X124490000Y-70060000D03*
X127030000Y-70060000D03*
X129570000Y-70060000D03*
X132110000Y-70060000D03*
X134650000Y-70060000D03*
X137190000Y-70060000D03*
X139730000Y-70060000D03*
X142270000Y-70060000D03*
X144810000Y-70060000D03*
X147350000Y-70060000D03*
X149890000Y-70060000D03*
X152430000Y-70060000D03*
X154970000Y-70060000D03*
X157510000Y-70060000D03*
X160050000Y-70060000D03*
X162590000Y-70060000D03*
X111790000Y-67520000D03*
X114330000Y-67520000D03*
X116870000Y-67520000D03*
X119410000Y-67520000D03*
X121950000Y-67520000D03*
X124490000Y-67520000D03*
X127030000Y-67520000D03*
X129570000Y-67520000D03*
X132110000Y-67520000D03*
X134650000Y-67520000D03*
X137190000Y-67520000D03*
X139730000Y-67520000D03*
X142270000Y-67520000D03*
X144810000Y-67520000D03*
X147350000Y-67520000D03*
X149890000Y-67520000D03*
X152430000Y-67520000D03*
X154970000Y-67520000D03*
X157510000Y-67520000D03*
X160050000Y-67520000D03*
X162590000Y-67520000D03*
%TD*%
D12*
%TO.C,H2*%
X185450000Y-51010000D03*
%TD*%
D19*
%TO.C,J1*%
X81945000Y-120745000D03*
X84995000Y-66365000D03*
D20*
X76230000Y-118320000D03*
X76230000Y-117050000D03*
X76230000Y-115780000D03*
X76230000Y-114510000D03*
X76230000Y-113240000D03*
X76230000Y-111970000D03*
X76230000Y-110700000D03*
X76230000Y-109430000D03*
X76230000Y-108160000D03*
X76230000Y-106890000D03*
X76230000Y-105620000D03*
X76230000Y-104350000D03*
X76230000Y-103080000D03*
X76230000Y-101810000D03*
X76230000Y-100540000D03*
X76230000Y-99270000D03*
X76230000Y-98000000D03*
X76230000Y-96730000D03*
X76230000Y-95460000D03*
X76230000Y-94195000D03*
X76230000Y-92915000D03*
X76230000Y-91650000D03*
X76230000Y-90380000D03*
X76230000Y-89110000D03*
X76230000Y-87840000D03*
X76230000Y-86570000D03*
X76230000Y-85300000D03*
X76230000Y-84030000D03*
X76230000Y-82760000D03*
X76230000Y-81490000D03*
X76230000Y-80220000D03*
X76230000Y-78950000D03*
X76230000Y-77680000D03*
X76230000Y-76410000D03*
X76230000Y-75140000D03*
X76230000Y-73870000D03*
X76230000Y-72600000D03*
X76230000Y-71330000D03*
X76230000Y-70060000D03*
X76230000Y-68790000D03*
X77500000Y-118320000D03*
X77500000Y-117050000D03*
X77500000Y-115780000D03*
X77500000Y-114510000D03*
X77500000Y-113240000D03*
X77500000Y-111970000D03*
X77500000Y-110700000D03*
X77500000Y-109430000D03*
X77500000Y-108160000D03*
X77500000Y-106890000D03*
X77500000Y-105620000D03*
X77500000Y-104350000D03*
X77500000Y-103080000D03*
X77500000Y-101810000D03*
X77500000Y-100540000D03*
X77500000Y-99270000D03*
X77500000Y-98000000D03*
X77500000Y-96730000D03*
X77500000Y-95460000D03*
X77500000Y-94195000D03*
X77500000Y-92915000D03*
X77500000Y-91650000D03*
X77500000Y-90380000D03*
X77500000Y-89110000D03*
X77500000Y-87840000D03*
X77500000Y-86570000D03*
X77500000Y-85300000D03*
X77500000Y-84030000D03*
X77500000Y-82760000D03*
X77500000Y-81490000D03*
X77500000Y-80220000D03*
X77500000Y-78950000D03*
X77500000Y-77680000D03*
X77500000Y-76410000D03*
X77500000Y-75140000D03*
X77500000Y-73870000D03*
X77500000Y-72600000D03*
X77500000Y-71330000D03*
X77500000Y-70060000D03*
X77500000Y-68790000D03*
X78770000Y-118320000D03*
X78770000Y-117050000D03*
X78770000Y-115780000D03*
X78770000Y-114510000D03*
X78770000Y-113240000D03*
X78770000Y-111970000D03*
X78770000Y-110700000D03*
X78770000Y-109430000D03*
X78770000Y-108160000D03*
X78770000Y-106890000D03*
X78770000Y-105620000D03*
X78770000Y-104350000D03*
X78770000Y-103080000D03*
X78770000Y-101810000D03*
X78770000Y-100540000D03*
X78770000Y-99270000D03*
X78770000Y-98000000D03*
X78770000Y-96730000D03*
X78770000Y-95460000D03*
X78770000Y-94195000D03*
X78770000Y-92915000D03*
X78770000Y-91650000D03*
X78770000Y-90380000D03*
X78770000Y-89110000D03*
X78770000Y-87840000D03*
X78770000Y-86570000D03*
X78770000Y-85300000D03*
X78770000Y-84030000D03*
X78770000Y-82760000D03*
X78770000Y-81490000D03*
X78770000Y-80220000D03*
X78770000Y-78950000D03*
X78770000Y-77680000D03*
X78770000Y-76410000D03*
X78770000Y-75140000D03*
X78770000Y-73870000D03*
X78770000Y-72600000D03*
X78770000Y-71330000D03*
X78770000Y-70060000D03*
X78770000Y-68790000D03*
X80040000Y-118320000D03*
X80040000Y-117050000D03*
X80040000Y-115780000D03*
X80040000Y-114510000D03*
X80040000Y-113240000D03*
X80040000Y-111970000D03*
X80040000Y-110700000D03*
X80040000Y-109430000D03*
X80040000Y-108160000D03*
X80040000Y-106890000D03*
X80040000Y-105620000D03*
X80040000Y-104350000D03*
X80040000Y-103080000D03*
X80040000Y-101810000D03*
X80040000Y-100540000D03*
X80040000Y-99270000D03*
X80040000Y-98000000D03*
X80040000Y-96730000D03*
X80040000Y-95460000D03*
X80040000Y-94195000D03*
X80040000Y-92915000D03*
X80040000Y-91650000D03*
X80040000Y-90380000D03*
X80040000Y-89110000D03*
X80040000Y-87840000D03*
X80040000Y-86570000D03*
X80040000Y-85300000D03*
X80040000Y-84030000D03*
X80040000Y-82760000D03*
X80040000Y-81490000D03*
X80040000Y-80220000D03*
X80040000Y-78950000D03*
X80040000Y-77680000D03*
X80040000Y-76410000D03*
X80040000Y-75140000D03*
X80040000Y-73870000D03*
X80040000Y-72600000D03*
X80040000Y-71330000D03*
X80040000Y-70060000D03*
X80040000Y-68790000D03*
X81305000Y-118320000D03*
X81305000Y-117050000D03*
X81305000Y-115780000D03*
X81305000Y-114510000D03*
X81305000Y-113240000D03*
X81305000Y-111970000D03*
X81305000Y-110700000D03*
X81305000Y-109430000D03*
X81305000Y-108160000D03*
X81305000Y-106890000D03*
X81305000Y-105620000D03*
X81305000Y-104350000D03*
X81305000Y-103080000D03*
X81305000Y-101810000D03*
X81305000Y-100540000D03*
X81305000Y-99270000D03*
X81305000Y-98000000D03*
X81305000Y-96730000D03*
X81305000Y-95460000D03*
X81305000Y-94195000D03*
X81305000Y-92915000D03*
X81305000Y-91650000D03*
X81305000Y-90380000D03*
X81305000Y-89110000D03*
X81305000Y-87840000D03*
X81305000Y-86570000D03*
X81305000Y-85300000D03*
X81305000Y-84030000D03*
X81305000Y-82760000D03*
X81305000Y-81490000D03*
X81305000Y-80220000D03*
X81305000Y-78950000D03*
X81305000Y-77680000D03*
X81305000Y-76410000D03*
X81305000Y-75140000D03*
X81305000Y-73870000D03*
X81305000Y-72600000D03*
X81305000Y-71330000D03*
X81305000Y-70060000D03*
X81305000Y-68790000D03*
X82585000Y-118320000D03*
X82585000Y-117050000D03*
X82585000Y-115780000D03*
X82585000Y-114510000D03*
X82585000Y-113240000D03*
X82585000Y-111970000D03*
X82585000Y-110700000D03*
X82585000Y-109430000D03*
X82585000Y-108160000D03*
X82585000Y-106890000D03*
X82585000Y-105620000D03*
X82585000Y-104350000D03*
X82585000Y-103080000D03*
X82585000Y-101810000D03*
X82585000Y-100540000D03*
X82585000Y-99270000D03*
X82585000Y-98000000D03*
X82585000Y-96730000D03*
X82585000Y-95460000D03*
X82585000Y-94195000D03*
X82585000Y-92915000D03*
X82585000Y-91650000D03*
X82585000Y-90380000D03*
X82585000Y-89110000D03*
X82585000Y-87840000D03*
X82585000Y-86570000D03*
X82585000Y-85300000D03*
X82585000Y-84030000D03*
X82585000Y-82760000D03*
X82585000Y-81490000D03*
X82585000Y-80220000D03*
X82585000Y-78950000D03*
X82585000Y-77680000D03*
X82585000Y-76410000D03*
X82585000Y-75140000D03*
X82585000Y-73870000D03*
X82585000Y-72600000D03*
X82585000Y-71330000D03*
X82585000Y-70060000D03*
X82585000Y-68790000D03*
X83850000Y-118320000D03*
X83850000Y-117050000D03*
X83850000Y-115780000D03*
X83850000Y-114510000D03*
X83850000Y-113240000D03*
X83850000Y-111970000D03*
X83850000Y-110700000D03*
X83850000Y-109430000D03*
X83850000Y-108160000D03*
X83850000Y-106890000D03*
X83850000Y-105620000D03*
X83850000Y-104350000D03*
X83850000Y-103080000D03*
X83850000Y-101810000D03*
X83850000Y-100540000D03*
X83850000Y-99270000D03*
X83850000Y-98000000D03*
X83850000Y-96730000D03*
X83850000Y-95460000D03*
X83850000Y-94195000D03*
X83850000Y-92915000D03*
X83850000Y-91650000D03*
X83850000Y-90380000D03*
X83850000Y-89110000D03*
X83850000Y-87840000D03*
X83850000Y-86570000D03*
X83850000Y-85300000D03*
X83850000Y-84030000D03*
X83850000Y-82760000D03*
X83850000Y-81490000D03*
X83850000Y-80220000D03*
X83850000Y-78950000D03*
X83850000Y-77680000D03*
X83850000Y-76410000D03*
X83850000Y-75140000D03*
X83850000Y-73870000D03*
X83850000Y-72600000D03*
X83850000Y-71330000D03*
X83850000Y-70060000D03*
X83850000Y-68790000D03*
X85120000Y-118320000D03*
X85120000Y-117050000D03*
X85120000Y-115780000D03*
X85120000Y-114510000D03*
X85120000Y-113240000D03*
X85120000Y-111970000D03*
X85120000Y-110700000D03*
X85120000Y-109430000D03*
X85120000Y-108160000D03*
X85120000Y-106890000D03*
X85120000Y-105620000D03*
X85120000Y-104350000D03*
X85120000Y-103080000D03*
X85120000Y-101810000D03*
X85120000Y-100540000D03*
X85120000Y-99270000D03*
X85120000Y-98000000D03*
X85120000Y-96730000D03*
X85120000Y-95460000D03*
X85120000Y-94195000D03*
X85120000Y-92915000D03*
X85120000Y-91650000D03*
X85120000Y-90380000D03*
X85120000Y-89110000D03*
X85120000Y-87840000D03*
X85120000Y-86570000D03*
X85120000Y-85300000D03*
X85120000Y-84030000D03*
X85120000Y-82760000D03*
X85120000Y-81490000D03*
X85120000Y-80220000D03*
X85120000Y-78950000D03*
X85120000Y-77680000D03*
X85120000Y-76410000D03*
X85120000Y-75140000D03*
X85120000Y-73870000D03*
X85120000Y-72600000D03*
X85120000Y-71330000D03*
X85120000Y-70060000D03*
X85120000Y-68790000D03*
X86390000Y-118320000D03*
X86390000Y-117050000D03*
X86390000Y-115780000D03*
X86390000Y-114510000D03*
X86390000Y-113240000D03*
X86390000Y-111970000D03*
X86390000Y-110700000D03*
X86390000Y-109430000D03*
X86390000Y-108160000D03*
X86390000Y-106890000D03*
X86390000Y-105620000D03*
X86390000Y-104350000D03*
X86390000Y-103080000D03*
X86390000Y-101810000D03*
X86390000Y-100540000D03*
X86390000Y-99270000D03*
X86390000Y-98000000D03*
X86390000Y-96730000D03*
X86390000Y-95460000D03*
X86390000Y-94195000D03*
X86390000Y-92915000D03*
X86390000Y-91650000D03*
X86390000Y-90380000D03*
X86390000Y-89110000D03*
X86390000Y-87840000D03*
X86390000Y-86570000D03*
X86390000Y-85300000D03*
X86390000Y-84030000D03*
X86390000Y-82760000D03*
X86390000Y-81490000D03*
X86390000Y-80220000D03*
X86390000Y-78950000D03*
X86390000Y-77680000D03*
X86390000Y-76410000D03*
X86390000Y-75140000D03*
X86390000Y-73870000D03*
X86390000Y-72600000D03*
X86390000Y-71330000D03*
X86390000Y-70060000D03*
X86390000Y-68790000D03*
X87660000Y-118320000D03*
X87660000Y-117050000D03*
X87660000Y-115780000D03*
X87660000Y-114510000D03*
X87660000Y-113240000D03*
X87660000Y-111970000D03*
X87660000Y-110700000D03*
X87660000Y-109430000D03*
X87660000Y-108160000D03*
X87660000Y-106890000D03*
X87660000Y-105620000D03*
X87660000Y-104350000D03*
X87660000Y-103080000D03*
X87660000Y-101810000D03*
X87660000Y-100540000D03*
X87660000Y-99270000D03*
X87660000Y-98000000D03*
X87660000Y-96730000D03*
X87660000Y-95460000D03*
X87660000Y-94195000D03*
X87660000Y-92915000D03*
X87660000Y-91650000D03*
X87660000Y-90380000D03*
X87660000Y-89110000D03*
X87660000Y-87840000D03*
X87660000Y-86570000D03*
X87660000Y-85300000D03*
X87660000Y-84030000D03*
X87660000Y-82760000D03*
X87660000Y-81490000D03*
X87660000Y-80220000D03*
X87660000Y-78950000D03*
X87660000Y-77680000D03*
X87660000Y-76410000D03*
X87660000Y-75140000D03*
X87660000Y-73870000D03*
X87660000Y-72600000D03*
X87660000Y-71330000D03*
X87660000Y-70060000D03*
X87660000Y-68790000D03*
%TD*%
M02*
