M48
; DRILL file {KiCad (6.0.9-0)} date Monday, December 19, 2022 at 02:05:24 PM
; FORMAT={-:-/ absolute / inch / decimal}
; #@! TF.CreationDate,2022-12-19T14:05:24-05:00
; #@! TF.GenerationSoftware,Kicad,Pcbnew,(6.0.9-0)
; #@! TF.FileFunction,Plated,1,12,PTH
FMAT,2
INCH
; #@! TA.AperFunction,Plated,PTH,ViaDrill
T1C0.0100
; #@! TA.AperFunction,Plated,PTH,ComponentDrill
T2C0.0100
; #@! TA.AperFunction,Plated,PTH,ViaDrill
T3C0.0157
; #@! TA.AperFunction,Plated,PTH,ComponentDrill
T4C0.0315
; #@! TA.AperFunction,Plated,PTH,ComponentDrill
T5C0.0339
; #@! TA.AperFunction,Plated,PTH,ComponentDrill
T6C0.0394
; #@! TA.AperFunction,Plated,PTH,ComponentDrill
T7C0.0591
; #@! TA.AperFunction,Plated,PTH,ComponentDrill
T8C0.0984
%
G90
G05
T1
X3.0262Y-2.7333
X3.0262Y-2.8833
X3.0262Y-2.9333
X3.0262Y-3.0833
X3.0262Y-3.1333
X3.0262Y-3.2833
X3.0262Y-3.3333
X3.0262Y-3.4833
X3.0262Y-3.5333
X3.0262Y-3.6833
X3.0262Y-3.7333
X3.0262Y-3.8833
X3.0262Y-3.9333
X3.0262Y-4.0833
X3.0262Y-4.1333
X3.0262Y-4.2833
X3.0262Y-4.3333
X3.0262Y-4.4833
X3.0262Y-4.5333
X3.0262Y-4.6833
X3.0762Y-2.7833
X3.0762Y-2.8333
X3.0762Y-2.9833
X3.0762Y-3.0333
X3.0762Y-3.1833
X3.0762Y-3.2333
X3.0762Y-3.3833
X3.0762Y-3.4333
X3.0762Y-3.5833
X3.0762Y-3.6333
X3.0762Y-3.7833
X3.0762Y-3.8333
X3.0762Y-3.9833
X3.0762Y-4.0333
X3.0762Y-4.1833
X3.0762Y-4.2333
X3.0762Y-4.3833
X3.0762Y-4.4333
X3.0762Y-4.5833
X3.0762Y-4.6333
X3.1262Y-2.7333
X3.1262Y-2.7833
X3.1262Y-2.8333
X3.1262Y-2.9333
X3.1262Y-3.0833
X3.1262Y-3.1333
X3.1262Y-3.2833
X3.1262Y-3.3333
X3.1262Y-3.3833
X3.1262Y-3.4333
X3.1262Y-3.4833
X3.1262Y-3.5333
X3.1262Y-3.5833
X3.1262Y-3.6333
X3.1262Y-3.6833
X3.1262Y-3.7333
X3.1262Y-3.7833
X3.1262Y-3.8333
X3.1262Y-3.8833
X3.1262Y-3.9333
X3.1262Y-3.9833
X3.1262Y-4.0333
X3.1262Y-4.0833
X3.1262Y-4.1333
X3.1262Y-4.1833
X3.1262Y-4.2333
X3.1262Y-4.2833
X3.1262Y-4.3333
X3.1262Y-4.4833
X3.1262Y-4.5333
X3.1262Y-4.6833
X3.1762Y-2.7333
X3.1762Y-2.7833
X3.1762Y-2.8333
X3.1762Y-2.8833
X3.1762Y-2.9333
X3.1762Y-3.3333
X3.1762Y-3.3833
X3.1762Y-3.4333
X3.1762Y-3.4833
X3.1762Y-3.5333
X3.1762Y-3.5833
X3.1762Y-3.6333
X3.1762Y-3.6833
X3.1762Y-3.7333
X3.1762Y-3.7833
X3.1762Y-3.8333
X3.1762Y-3.8833
X3.1762Y-3.9333
X3.1762Y-3.9833
X3.1762Y-4.0333
X3.1762Y-4.0833
X3.1762Y-4.1333
X3.1762Y-4.1833
X3.1762Y-4.2333
X3.1762Y-4.2833
X3.1762Y-4.3333
X3.1762Y-4.3833
X3.1762Y-4.4333
X3.1762Y-4.5833
X3.1762Y-4.6333
X3.2262Y-2.7333
X3.2262Y-2.8333
X3.2262Y-2.8833
X3.2262Y-2.9333
X3.2262Y-2.9833
X3.2262Y-3.0333
X3.2262Y-3.0833
X3.2262Y-3.1333
X3.2262Y-3.1833
X3.2262Y-3.2333
X3.2262Y-3.2833
X3.2262Y-3.3333
X3.2262Y-3.3833
X3.2262Y-3.4333
X3.2262Y-3.4833
X3.2262Y-3.5333
X3.2262Y-3.5833
X3.2262Y-3.6333
X3.2262Y-3.6833
X3.2262Y-3.7333
X3.2262Y-3.7833
X3.2262Y-3.8333
X3.2262Y-3.8833
X3.2262Y-3.9333
X3.2262Y-3.9833
X3.2262Y-4.0333
X3.2262Y-4.0833
X3.2262Y-4.1333
X3.2262Y-4.1833
X3.2262Y-4.2333
X3.2262Y-4.2833
X3.2262Y-4.3333
X3.2262Y-4.3833
X3.2262Y-4.4333
X3.2262Y-4.4833
X3.2262Y-4.5333
X3.2262Y-4.5833
X3.2262Y-4.6333
X3.2262Y-4.6833
X3.2762Y-2.7833
X3.2762Y-2.8333
X3.2762Y-2.8833
X3.2762Y-2.9333
X3.2762Y-2.9833
X3.2762Y-3.0333
X3.2762Y-3.0833
X3.2762Y-3.1333
X3.2762Y-3.1833
X3.2762Y-3.2333
X3.2762Y-3.2833
X3.2762Y-3.3333
X3.2762Y-3.3833
X3.2762Y-3.4333
X3.2762Y-3.4833
X3.2762Y-3.5333
X3.2762Y-3.5833
X3.2762Y-3.6333
X3.2762Y-3.6833
X3.2762Y-3.7333
X3.2762Y-3.7833
X3.2762Y-3.8333
X3.2762Y-3.8833
X3.2762Y-3.9333
X3.2762Y-3.9833
X3.2762Y-4.0333
X3.2762Y-4.0833
X3.2762Y-4.1333
X3.2762Y-4.1833
X3.2762Y-4.2333
X3.2762Y-4.2833
X3.2762Y-4.3333
X3.2762Y-4.3833
X3.2762Y-4.4333
X3.2762Y-4.4833
X3.2762Y-4.5333
X3.2762Y-4.5833
X3.2762Y-4.6333
X3.3262Y-2.7333
X3.3262Y-2.8333
X3.3262Y-2.8833
X3.3262Y-2.9333
X3.3262Y-2.9833
X3.3262Y-3.0333
X3.3262Y-3.0833
X3.3262Y-3.1333
X3.3262Y-3.1833
X3.3262Y-3.2333
X3.3262Y-3.2833
X3.3262Y-3.3333
X3.3262Y-3.3833
X3.3262Y-3.4333
X3.3262Y-3.4833
X3.3262Y-3.5333
X3.3262Y-3.5833
X3.3262Y-3.6333
X3.3262Y-3.6833
X3.3262Y-3.7333
X3.3262Y-3.7833
X3.3262Y-3.8333
X3.3262Y-3.8833
X3.3262Y-3.9333
X3.3262Y-3.9833
X3.3262Y-4.0333
X3.3262Y-4.0833
X3.3262Y-4.1333
X3.3262Y-4.1833
X3.3262Y-4.2333
X3.3262Y-4.2833
X3.3262Y-4.3333
X3.3262Y-4.3833
X3.3262Y-4.4333
X3.3262Y-4.4833
X3.3262Y-4.5333
X3.3262Y-4.6833
X3.3762Y-2.7833
X3.3762Y-2.8333
X3.3762Y-2.8833
X3.3762Y-2.9333
X3.3762Y-2.9833
X3.3762Y-3.0333
X3.3762Y-3.0833
X3.3762Y-3.1333
X3.3762Y-3.1833
X3.3762Y-3.2333
X3.3762Y-3.2833
X3.3762Y-3.3333
X3.3762Y-3.3833
X3.3762Y-3.4333
X3.3762Y-3.4833
X3.3762Y-3.5333
X3.3762Y-3.5833
X3.3762Y-3.6333
X3.3762Y-3.6833
X3.3762Y-3.7333
X3.3762Y-3.7833
X3.3762Y-3.8333
X3.3762Y-3.8833
X3.3762Y-3.9333
X3.3762Y-3.9833
X3.3762Y-4.0333
X3.3762Y-4.0833
X3.3762Y-4.1333
X3.3762Y-4.1833
X3.3762Y-4.2333
X3.3762Y-4.2833
X3.3762Y-4.3333
X3.3762Y-4.3833
X3.3762Y-4.4333
X3.3762Y-4.5833
X3.3762Y-4.6333
X3.4262Y-2.7333
X3.4262Y-2.8333
X3.4262Y-2.8833
X3.4262Y-2.9333
X3.4262Y-2.9833
X3.4262Y-3.0333
X3.4262Y-3.0833
X3.4262Y-3.1333
X3.4262Y-3.1833
X3.4262Y-3.2333
X3.4262Y-3.2833
X3.4262Y-3.3333
X3.4262Y-3.3833
X3.4262Y-3.4333
X3.4262Y-3.4833
X3.4262Y-3.5333
X3.4262Y-3.5833
X3.4262Y-3.6333
X3.4262Y-3.6833
X3.4262Y-3.7333
X3.4262Y-3.7833
X3.4262Y-3.8333
X3.4262Y-3.8833
X3.4262Y-3.9333
X3.4262Y-3.9833
X3.4262Y-4.0333
X3.4262Y-4.0833
X3.4262Y-4.1333
X3.4262Y-4.1833
X3.4262Y-4.2333
X3.4262Y-4.2833
X3.4262Y-4.3333
X3.4262Y-4.3833
X3.4262Y-4.4333
X3.4262Y-4.4833
X3.4262Y-4.5333
X3.4262Y-4.6833
X3.4762Y-2.7833
X3.4762Y-2.8333
X3.4762Y-2.8833
X3.4762Y-2.9333
X3.4762Y-2.9833
X3.4762Y-3.0333
X3.4762Y-3.0833
X3.4762Y-3.1333
X3.4762Y-3.2333
X3.4762Y-3.2833
X3.4762Y-3.3333
X3.4762Y-3.3833
X3.4762Y-3.5333
X3.4762Y-3.5833
X3.4762Y-3.6833
X3.4762Y-3.7333
X3.4762Y-3.8333
X3.4762Y-3.9333
X3.4762Y-3.9833
X3.4762Y-4.0333
X3.4762Y-4.0833
X3.4762Y-4.1333
X3.4762Y-4.2333
X3.4762Y-4.2833
X3.4762Y-4.3333
X3.4762Y-4.3833
X3.4762Y-4.4333
X3.4762Y-4.5833
X3.4762Y-4.6333
X3.5762Y-3.1733
X3.5762Y-3.4283
X3.5762Y-3.5033
X3.5762Y-3.6283
X3.5762Y-3.7783
X3.5762Y-3.8533
X3.5762Y-3.9283
X3.5762Y-4.0533
X3.5762Y-4.1783
X3.7835Y-2.7709
X3.9812Y-2.7133
X4.2862Y-3.1933
X4.3212Y-3.2683
X4.3412Y-3.0683
X4.4412Y-4.0733
X4.4483Y-3.4912
X4.4512Y-4.1583
X4.5512Y-4.0583
X4.6421Y-4.3742
X4.6512Y-4.0583
X4.6512Y-4.1733
X4.7512Y-2.9583
X4.7512Y-3.4583
X4.7512Y-4.1617
X4.8512Y-3.6548
X4.8512Y-4.1583
X4.9512Y-4.2633
X5.1512Y-4.2633
X5.3512Y-4.2633
X5.9512Y-3.06
X5.9512Y-3.1433
X6.1562Y-3.1983
T2
X3.6014Y-5.112
X3.6014Y-5.1553
X3.6014Y-5.287
X3.6014Y-5.3303
X3.6014Y-5.462
X3.6014Y-5.5053
T3
X3.0014Y-5.3331
X3.0512Y-4.9333
X3.2264Y-5.4331
X3.3762Y-4.9333
X3.6764Y-5.1337
X3.6764Y-5.2231
X3.6764Y-5.3081
X3.6764Y-5.4831
X3.6764Y-5.5731
X3.9764Y-5.1831
X4.0104Y-5.299
X4.2604Y-5.299
X4.2673Y-5.4171
X4.2695Y-5.065
X4.2764Y-5.1831
X4.5264Y-5.1831
X4.5354Y-5.299
X4.5423Y-5.4171
X4.5445Y-5.065
X4.8173Y-5.4171
X4.8195Y-5.065
X4.8354Y-5.299
X4.8514Y-5.1831
X5.2173Y-5.4171
X5.2195Y-5.065
X6.8012Y-3.3833
X7.0012Y-4.1083
X7.0012Y-4.6583
X7.0512Y-4.1083
X7.2512Y-4.6333
T4
X5.4002Y-5.2248
X5.4002Y-5.5748
X5.6002Y-5.2248
X5.6002Y-5.5748
T5
X4.4012Y-2.6583
X4.4012Y-2.7583
X4.4012Y-2.8583
X4.4012Y-2.9583
X4.4012Y-3.0583
X4.4012Y-3.1583
X4.4012Y-3.2583
X4.4012Y-3.3583
X4.4012Y-3.4583
X4.4012Y-3.5583
X4.4012Y-3.6583
X4.4012Y-3.7583
X4.4012Y-3.8583
X4.4012Y-3.9583
X4.4012Y-4.0583
X4.4012Y-4.1583
X4.4012Y-4.2583
X4.4012Y-4.3583
X4.4012Y-4.4583
X4.4012Y-4.5583
X4.4012Y-4.6583
X4.5012Y-2.6583
X4.5012Y-2.7583
X4.5012Y-2.8583
X4.5012Y-2.9583
X4.5012Y-3.0583
X4.5012Y-3.1583
X4.5012Y-3.2583
X4.5012Y-3.3583
X4.5012Y-3.4583
X4.5012Y-3.5583
X4.5012Y-3.6583
X4.5012Y-3.7583
X4.5012Y-3.8583
X4.5012Y-3.9583
X4.5012Y-4.0583
X4.5012Y-4.1583
X4.5012Y-4.2583
X4.5012Y-4.3583
X4.5012Y-4.4583
X4.5012Y-4.5583
X4.5012Y-4.6583
X4.6012Y-2.6583
X4.6012Y-2.7583
X4.6012Y-2.8583
X4.6012Y-2.9583
X4.6012Y-3.0583
X4.6012Y-3.1583
X4.6012Y-3.2583
X4.6012Y-3.3583
X4.6012Y-3.4583
X4.6012Y-3.5583
X4.6012Y-3.6583
X4.6012Y-3.7583
X4.6012Y-3.8583
X4.6012Y-3.9583
X4.6012Y-4.0583
X4.6012Y-4.1583
X4.6012Y-4.2583
X4.6012Y-4.3583
X4.6012Y-4.4583
X4.6012Y-4.5583
X4.6012Y-4.6583
X4.7012Y-2.6583
X4.7012Y-2.7583
X4.7012Y-2.8583
X4.7012Y-2.9583
X4.7012Y-3.0583
X4.7012Y-3.1583
X4.7012Y-3.2583
X4.7012Y-3.3583
X4.7012Y-3.4583
X4.7012Y-3.5583
X4.7012Y-3.6583
X4.7012Y-3.7583
X4.7012Y-3.8583
X4.7012Y-3.9583
X4.7012Y-4.0583
X4.7012Y-4.1583
X4.7012Y-4.2583
X4.7012Y-4.3583
X4.7012Y-4.4583
X4.7012Y-4.5583
X4.7012Y-4.6583
X4.8012Y-2.6583
X4.8012Y-2.7583
X4.8012Y-2.8583
X4.8012Y-2.9583
X4.8012Y-3.0583
X4.8012Y-3.1583
X4.8012Y-3.2583
X4.8012Y-3.3583
X4.8012Y-3.4583
X4.8012Y-3.5583
X4.8012Y-3.6583
X4.8012Y-3.7583
X4.8012Y-3.8583
X4.8012Y-3.9583
X4.8012Y-4.0583
X4.8012Y-4.1583
X4.8012Y-4.2583
X4.8012Y-4.3583
X4.8012Y-4.4583
X4.8012Y-4.5583
X4.8012Y-4.6583
X4.9012Y-2.6583
X4.9012Y-2.7583
X4.9012Y-2.8583
X4.9012Y-2.9583
X4.9012Y-3.0583
X4.9012Y-3.1583
X4.9012Y-3.2583
X4.9012Y-3.3583
X4.9012Y-3.4583
X4.9012Y-3.5583
X4.9012Y-3.6583
X4.9012Y-3.7583
X4.9012Y-3.8583
X4.9012Y-3.9583
X4.9012Y-4.0583
X4.9012Y-4.1583
X4.9012Y-4.2583
X4.9012Y-4.3583
X4.9012Y-4.4583
X4.9012Y-4.5583
X4.9012Y-4.6583
X5.0012Y-2.6583
X5.0012Y-2.7583
X5.0012Y-2.8583
X5.0012Y-2.9583
X5.0012Y-3.0583
X5.0012Y-3.1583
X5.0012Y-3.2583
X5.0012Y-3.3583
X5.0012Y-3.4583
X5.0012Y-3.5583
X5.0012Y-3.6583
X5.0012Y-3.7583
X5.0012Y-3.8583
X5.0012Y-3.9583
X5.0012Y-4.0583
X5.0012Y-4.1583
X5.0012Y-4.2583
X5.0012Y-4.3583
X5.0012Y-4.4583
X5.0012Y-4.5583
X5.0012Y-4.6583
X5.1012Y-2.6583
X5.1012Y-2.7583
X5.1012Y-2.8583
X5.1012Y-2.9583
X5.1012Y-3.0583
X5.1012Y-3.1583
X5.1012Y-3.2583
X5.1012Y-3.3583
X5.1012Y-3.4583
X5.1012Y-3.5583
X5.1012Y-3.6583
X5.1012Y-3.7583
X5.1012Y-3.8583
X5.1012Y-3.9583
X5.1012Y-4.0583
X5.1012Y-4.1583
X5.1012Y-4.2583
X5.1012Y-4.3583
X5.1012Y-4.4583
X5.1012Y-4.5583
X5.1012Y-4.6583
X5.2012Y-2.6583
X5.2012Y-2.7583
X5.2012Y-2.8583
X5.2012Y-2.9583
X5.2012Y-3.0583
X5.2012Y-3.1583
X5.2012Y-3.2583
X5.2012Y-3.3583
X5.2012Y-3.4583
X5.2012Y-3.5583
X5.2012Y-3.6583
X5.2012Y-3.7583
X5.2012Y-3.8583
X5.2012Y-3.9583
X5.2012Y-4.0583
X5.2012Y-4.1583
X5.2012Y-4.2583
X5.2012Y-4.3583
X5.2012Y-4.4583
X5.2012Y-4.5583
X5.2012Y-4.6583
X5.3012Y-2.6583
X5.3012Y-2.7583
X5.3012Y-2.8583
X5.3012Y-2.9583
X5.3012Y-3.0583
X5.3012Y-3.1583
X5.3012Y-3.2583
X5.3012Y-3.3583
X5.3012Y-3.4583
X5.3012Y-3.5583
X5.3012Y-3.6583
X5.3012Y-3.7583
X5.3012Y-3.8583
X5.3012Y-3.9583
X5.3012Y-4.0583
X5.3012Y-4.1583
X5.3012Y-4.2583
X5.3012Y-4.3583
X5.3012Y-4.4583
X5.3012Y-4.5583
X5.3012Y-4.6583
X5.4012Y-2.6583
X5.4012Y-2.7583
X5.4012Y-2.8583
X5.4012Y-2.9583
X5.4012Y-3.0583
X5.4012Y-3.1583
X5.4012Y-3.2583
X5.4012Y-3.3583
X5.4012Y-3.4583
X5.4012Y-3.5583
X5.4012Y-3.6583
X5.4012Y-3.7583
X5.4012Y-3.8583
X5.4012Y-3.9583
X5.4012Y-4.0583
X5.4012Y-4.1583
X5.4012Y-4.2583
X5.4012Y-4.3583
X5.4012Y-4.4583
X5.4012Y-4.5583
X5.4012Y-4.6583
X5.5012Y-2.6583
X5.5012Y-2.7583
X5.5012Y-2.8583
X5.5012Y-2.9583
X5.5012Y-3.0583
X5.5012Y-3.1583
X5.5012Y-3.2583
X5.5012Y-3.3583
X5.5012Y-3.4583
X5.5012Y-3.5583
X5.5012Y-3.6583
X5.5012Y-3.7583
X5.5012Y-3.8583
X5.5012Y-3.9583
X5.5012Y-4.0583
X5.5012Y-4.1583
X5.5012Y-4.2583
X5.5012Y-4.3583
X5.5012Y-4.4583
X5.5012Y-4.5583
X5.5012Y-4.6583
X5.6012Y-2.6583
X5.6012Y-2.7583
X5.6012Y-2.8583
X5.6012Y-2.9583
X5.6012Y-3.0583
X5.6012Y-3.1583
X5.6012Y-3.2583
X5.6012Y-3.3583
X5.6012Y-3.4583
X5.6012Y-3.5583
X5.6012Y-3.6583
X5.6012Y-3.7583
X5.6012Y-3.8583
X5.6012Y-3.9583
X5.6012Y-4.0583
X5.6012Y-4.1583
X5.6012Y-4.2583
X5.6012Y-4.3583
X5.6012Y-4.4583
X5.6012Y-4.5583
X5.6012Y-4.6583
X5.7012Y-2.6583
X5.7012Y-2.7583
X5.7012Y-2.8583
X5.7012Y-2.9583
X5.7012Y-3.0583
X5.7012Y-3.1583
X5.7012Y-3.2583
X5.7012Y-3.3583
X5.7012Y-3.4583
X5.7012Y-3.5583
X5.7012Y-3.6583
X5.7012Y-3.7583
X5.7012Y-3.8583
X5.7012Y-3.9583
X5.7012Y-4.0583
X5.7012Y-4.1583
X5.7012Y-4.2583
X5.7012Y-4.3583
X5.7012Y-4.4583
X5.7012Y-4.5583
X5.7012Y-4.6583
X5.8012Y-2.6583
X5.8012Y-2.7583
X5.8012Y-2.8583
X5.8012Y-2.9583
X5.8012Y-3.0583
X5.8012Y-3.1583
X5.8012Y-3.2583
X5.8012Y-3.3583
X5.8012Y-3.4583
X5.8012Y-3.5583
X5.8012Y-3.6583
X5.8012Y-3.7583
X5.8012Y-3.8583
X5.8012Y-3.9583
X5.8012Y-4.0583
X5.8012Y-4.1583
X5.8012Y-4.2583
X5.8012Y-4.3583
X5.8012Y-4.4583
X5.8012Y-4.5583
X5.8012Y-4.6583
X5.9012Y-2.6583
X5.9012Y-2.7583
X5.9012Y-2.8583
X5.9012Y-2.9583
X5.9012Y-3.0583
X5.9012Y-3.1583
X5.9012Y-3.2583
X5.9012Y-3.3583
X5.9012Y-3.4583
X5.9012Y-3.5583
X5.9012Y-3.6583
X5.9012Y-3.7583
X5.9012Y-3.8583
X5.9012Y-3.9583
X5.9012Y-4.0583
X5.9012Y-4.1583
X5.9012Y-4.2583
X5.9012Y-4.3583
X5.9012Y-4.4583
X5.9012Y-4.5583
X5.9012Y-4.6583
X6.0012Y-2.6583
X6.0012Y-2.7583
X6.0012Y-2.8583
X6.0012Y-2.9583
X6.0012Y-3.0583
X6.0012Y-3.1583
X6.0012Y-3.2583
X6.0012Y-3.3583
X6.0012Y-3.4583
X6.0012Y-3.5583
X6.0012Y-3.6583
X6.0012Y-3.7583
X6.0012Y-3.8583
X6.0012Y-3.9583
X6.0012Y-4.0583
X6.0012Y-4.1583
X6.0012Y-4.2583
X6.0012Y-4.3583
X6.0012Y-4.4583
X6.0012Y-4.5583
X6.0012Y-4.6583
X6.1012Y-2.6583
X6.1012Y-2.7583
X6.1012Y-2.8583
X6.1012Y-2.9583
X6.1012Y-3.0583
X6.1012Y-3.1583
X6.1012Y-3.2583
X6.1012Y-3.3583
X6.1012Y-3.4583
X6.1012Y-3.5583
X6.1012Y-3.6583
X6.1012Y-3.7583
X6.1012Y-3.8583
X6.1012Y-3.9583
X6.1012Y-4.0583
X6.1012Y-4.1583
X6.1012Y-4.2583
X6.1012Y-4.3583
X6.1012Y-4.4583
X6.1012Y-4.5583
X6.1012Y-4.6583
X6.2012Y-2.6583
X6.2012Y-2.7583
X6.2012Y-2.8583
X6.2012Y-2.9583
X6.2012Y-3.0583
X6.2012Y-3.1583
X6.2012Y-3.2583
X6.2012Y-3.3583
X6.2012Y-3.4583
X6.2012Y-3.5583
X6.2012Y-3.6583
X6.2012Y-3.7583
X6.2012Y-3.8583
X6.2012Y-3.9583
X6.2012Y-4.0583
X6.2012Y-4.1583
X6.2012Y-4.2583
X6.2012Y-4.3583
X6.2012Y-4.4583
X6.2012Y-4.5583
X6.2012Y-4.6583
X6.3012Y-2.6583
X6.3012Y-2.7583
X6.3012Y-2.8583
X6.3012Y-2.9583
X6.3012Y-3.0583
X6.3012Y-3.1583
X6.3012Y-3.2583
X6.3012Y-3.3583
X6.3012Y-3.4583
X6.3012Y-3.5583
X6.3012Y-3.6583
X6.3012Y-3.7583
X6.3012Y-3.8583
X6.3012Y-3.9583
X6.3012Y-4.0583
X6.3012Y-4.1583
X6.3012Y-4.2583
X6.3012Y-4.3583
X6.3012Y-4.4583
X6.3012Y-4.5583
X6.3012Y-4.6583
X6.4012Y-2.6583
X6.4012Y-2.7583
X6.4012Y-2.8583
X6.4012Y-2.9583
X6.4012Y-3.0583
X6.4012Y-3.1583
X6.4012Y-3.2583
X6.4012Y-3.3583
X6.4012Y-3.4583
X6.4012Y-3.5583
X6.4012Y-3.6583
X6.4012Y-3.7583
X6.4012Y-3.8583
X6.4012Y-3.9583
X6.4012Y-4.0583
X6.4012Y-4.1583
X6.4012Y-4.2583
X6.4012Y-4.3583
X6.4012Y-4.4583
X6.4012Y-4.5583
X6.4012Y-4.6583
T6
X6.026Y-5.5085
X6.026Y-5.6085
X6.126Y-5.5085
X6.126Y-5.6085
X6.226Y-5.5085
X6.226Y-5.6085
X6.326Y-5.5085
X6.326Y-5.6085
X6.426Y-5.5085
X6.426Y-5.6085
X6.526Y-5.5085
X6.526Y-5.6085
X6.626Y-5.5085
X6.626Y-5.6085
X6.726Y-5.5085
X6.726Y-5.6085
X6.826Y-5.5085
X6.826Y-5.6085
X6.926Y-5.5085
X6.926Y-5.6085
X7.026Y-5.5085
X7.026Y-5.6085
X7.126Y-5.5085
X7.126Y-5.6085
X7.2512Y-2.9081
X7.2512Y-3.0081
X7.2512Y-3.1081
X7.2512Y-3.2081
X7.2512Y-3.3081
X7.2512Y-3.4081
X7.2512Y-3.5081
T7
X3.8002Y-5.5583
X3.8002Y-5.7583
X3.9002Y-5.6583
X4.0002Y-5.5583
X4.0002Y-5.7583
X4.3002Y-5.5583
X4.3002Y-5.7583
X4.4002Y-5.6583
X4.5002Y-5.5583
X4.5002Y-5.7583
T8
X2.8512Y-2.0083
X7.3012Y-2.0083
T0
M30
