%TF.GenerationSoftware,KiCad,Pcbnew,(6.0.9-0)*%
%TF.CreationDate,2022-12-19T14:05:18-05:00*%
%TF.ProjectId,ember-pcb,656d6265-722d-4706-9362-2e6b69636164,rev?*%
%TF.SameCoordinates,Original*%
%TF.FileFunction,Paste,Bot*%
%TF.FilePolarity,Positive*%
%FSLAX46Y46*%
G04 Gerber Fmt 4.6, Leading zero omitted, Abs format (unit mm)*
G04 Created by KiCad (PCBNEW (6.0.9-0)) date 2022-12-19 14:05:18*
%MOMM*%
%LPD*%
G01*
G04 APERTURE LIST*
%ADD10C,0.640000*%
G04 APERTURE END LIST*
D10*
%TO.C,J1*%
X76230000Y-118320000D03*
X76230000Y-117050000D03*
X76230000Y-115780000D03*
X76230000Y-114510000D03*
X76230000Y-113240000D03*
X76230000Y-111970000D03*
X76230000Y-110700000D03*
X76230000Y-109430000D03*
X76230000Y-108160000D03*
X76230000Y-106890000D03*
X76230000Y-105620000D03*
X76230000Y-104350000D03*
X76230000Y-103080000D03*
X76230000Y-101810000D03*
X76230000Y-100540000D03*
X76230000Y-99270000D03*
X76230000Y-98000000D03*
X76230000Y-96730000D03*
X76230000Y-95460000D03*
X76230000Y-94195000D03*
X76230000Y-92915000D03*
X76230000Y-91650000D03*
X76230000Y-90380000D03*
X76230000Y-89110000D03*
X76230000Y-87840000D03*
X76230000Y-86570000D03*
X76230000Y-85300000D03*
X76230000Y-84030000D03*
X76230000Y-82760000D03*
X76230000Y-81490000D03*
X76230000Y-80220000D03*
X76230000Y-78950000D03*
X76230000Y-77680000D03*
X76230000Y-76410000D03*
X76230000Y-75140000D03*
X76230000Y-73870000D03*
X76230000Y-72600000D03*
X76230000Y-71330000D03*
X76230000Y-70060000D03*
X76230000Y-68790000D03*
X77500000Y-118320000D03*
X77500000Y-117050000D03*
X77500000Y-115780000D03*
X77500000Y-114510000D03*
X77500000Y-113240000D03*
X77500000Y-111970000D03*
X77500000Y-110700000D03*
X77500000Y-109430000D03*
X77500000Y-108160000D03*
X77500000Y-106890000D03*
X77500000Y-105620000D03*
X77500000Y-104350000D03*
X77500000Y-103080000D03*
X77500000Y-101810000D03*
X77500000Y-100540000D03*
X77500000Y-99270000D03*
X77500000Y-98000000D03*
X77500000Y-96730000D03*
X77500000Y-95460000D03*
X77500000Y-94195000D03*
X77500000Y-92915000D03*
X77500000Y-91650000D03*
X77500000Y-90380000D03*
X77500000Y-89110000D03*
X77500000Y-87840000D03*
X77500000Y-86570000D03*
X77500000Y-85300000D03*
X77500000Y-84030000D03*
X77500000Y-82760000D03*
X77500000Y-81490000D03*
X77500000Y-80220000D03*
X77500000Y-78950000D03*
X77500000Y-77680000D03*
X77500000Y-76410000D03*
X77500000Y-75140000D03*
X77500000Y-73870000D03*
X77500000Y-72600000D03*
X77500000Y-71330000D03*
X77500000Y-70060000D03*
X77500000Y-68790000D03*
X78770000Y-118320000D03*
X78770000Y-117050000D03*
X78770000Y-115780000D03*
X78770000Y-114510000D03*
X78770000Y-113240000D03*
X78770000Y-111970000D03*
X78770000Y-110700000D03*
X78770000Y-109430000D03*
X78770000Y-108160000D03*
X78770000Y-106890000D03*
X78770000Y-105620000D03*
X78770000Y-104350000D03*
X78770000Y-103080000D03*
X78770000Y-101810000D03*
X78770000Y-100540000D03*
X78770000Y-99270000D03*
X78770000Y-98000000D03*
X78770000Y-96730000D03*
X78770000Y-95460000D03*
X78770000Y-94195000D03*
X78770000Y-92915000D03*
X78770000Y-91650000D03*
X78770000Y-90380000D03*
X78770000Y-89110000D03*
X78770000Y-87840000D03*
X78770000Y-86570000D03*
X78770000Y-85300000D03*
X78770000Y-84030000D03*
X78770000Y-82760000D03*
X78770000Y-81490000D03*
X78770000Y-80220000D03*
X78770000Y-78950000D03*
X78770000Y-77680000D03*
X78770000Y-76410000D03*
X78770000Y-75140000D03*
X78770000Y-73870000D03*
X78770000Y-72600000D03*
X78770000Y-71330000D03*
X78770000Y-70060000D03*
X78770000Y-68790000D03*
X80040000Y-118320000D03*
X80040000Y-117050000D03*
X80040000Y-115780000D03*
X80040000Y-114510000D03*
X80040000Y-113240000D03*
X80040000Y-111970000D03*
X80040000Y-110700000D03*
X80040000Y-109430000D03*
X80040000Y-108160000D03*
X80040000Y-106890000D03*
X80040000Y-105620000D03*
X80040000Y-104350000D03*
X80040000Y-103080000D03*
X80040000Y-101810000D03*
X80040000Y-100540000D03*
X80040000Y-99270000D03*
X80040000Y-98000000D03*
X80040000Y-96730000D03*
X80040000Y-95460000D03*
X80040000Y-94195000D03*
X80040000Y-92915000D03*
X80040000Y-91650000D03*
X80040000Y-90380000D03*
X80040000Y-89110000D03*
X80040000Y-87840000D03*
X80040000Y-86570000D03*
X80040000Y-85300000D03*
X80040000Y-84030000D03*
X80040000Y-82760000D03*
X80040000Y-81490000D03*
X80040000Y-80220000D03*
X80040000Y-78950000D03*
X80040000Y-77680000D03*
X80040000Y-76410000D03*
X80040000Y-75140000D03*
X80040000Y-73870000D03*
X80040000Y-72600000D03*
X80040000Y-71330000D03*
X80040000Y-70060000D03*
X80040000Y-68790000D03*
X81305000Y-118320000D03*
X81305000Y-117050000D03*
X81305000Y-115780000D03*
X81305000Y-114510000D03*
X81305000Y-113240000D03*
X81305000Y-111970000D03*
X81305000Y-110700000D03*
X81305000Y-109430000D03*
X81305000Y-108160000D03*
X81305000Y-106890000D03*
X81305000Y-105620000D03*
X81305000Y-104350000D03*
X81305000Y-103080000D03*
X81305000Y-101810000D03*
X81305000Y-100540000D03*
X81305000Y-99270000D03*
X81305000Y-98000000D03*
X81305000Y-96730000D03*
X81305000Y-95460000D03*
X81305000Y-94195000D03*
X81305000Y-92915000D03*
X81305000Y-91650000D03*
X81305000Y-90380000D03*
X81305000Y-89110000D03*
X81305000Y-87840000D03*
X81305000Y-86570000D03*
X81305000Y-85300000D03*
X81305000Y-84030000D03*
X81305000Y-82760000D03*
X81305000Y-81490000D03*
X81305000Y-80220000D03*
X81305000Y-78950000D03*
X81305000Y-77680000D03*
X81305000Y-76410000D03*
X81305000Y-75140000D03*
X81305000Y-73870000D03*
X81305000Y-72600000D03*
X81305000Y-71330000D03*
X81305000Y-70060000D03*
X81305000Y-68790000D03*
X82585000Y-118320000D03*
X82585000Y-117050000D03*
X82585000Y-115780000D03*
X82585000Y-114510000D03*
X82585000Y-113240000D03*
X82585000Y-111970000D03*
X82585000Y-110700000D03*
X82585000Y-109430000D03*
X82585000Y-108160000D03*
X82585000Y-106890000D03*
X82585000Y-105620000D03*
X82585000Y-104350000D03*
X82585000Y-103080000D03*
X82585000Y-101810000D03*
X82585000Y-100540000D03*
X82585000Y-99270000D03*
X82585000Y-98000000D03*
X82585000Y-96730000D03*
X82585000Y-95460000D03*
X82585000Y-94195000D03*
X82585000Y-92915000D03*
X82585000Y-91650000D03*
X82585000Y-90380000D03*
X82585000Y-89110000D03*
X82585000Y-87840000D03*
X82585000Y-86570000D03*
X82585000Y-85300000D03*
X82585000Y-84030000D03*
X82585000Y-82760000D03*
X82585000Y-81490000D03*
X82585000Y-80220000D03*
X82585000Y-78950000D03*
X82585000Y-77680000D03*
X82585000Y-76410000D03*
X82585000Y-75140000D03*
X82585000Y-73870000D03*
X82585000Y-72600000D03*
X82585000Y-71330000D03*
X82585000Y-70060000D03*
X82585000Y-68790000D03*
X83850000Y-118320000D03*
X83850000Y-117050000D03*
X83850000Y-115780000D03*
X83850000Y-114510000D03*
X83850000Y-113240000D03*
X83850000Y-111970000D03*
X83850000Y-110700000D03*
X83850000Y-109430000D03*
X83850000Y-108160000D03*
X83850000Y-106890000D03*
X83850000Y-105620000D03*
X83850000Y-104350000D03*
X83850000Y-103080000D03*
X83850000Y-101810000D03*
X83850000Y-100540000D03*
X83850000Y-99270000D03*
X83850000Y-98000000D03*
X83850000Y-96730000D03*
X83850000Y-95460000D03*
X83850000Y-94195000D03*
X83850000Y-92915000D03*
X83850000Y-91650000D03*
X83850000Y-90380000D03*
X83850000Y-89110000D03*
X83850000Y-87840000D03*
X83850000Y-86570000D03*
X83850000Y-85300000D03*
X83850000Y-84030000D03*
X83850000Y-82760000D03*
X83850000Y-81490000D03*
X83850000Y-80220000D03*
X83850000Y-78950000D03*
X83850000Y-77680000D03*
X83850000Y-76410000D03*
X83850000Y-75140000D03*
X83850000Y-73870000D03*
X83850000Y-72600000D03*
X83850000Y-71330000D03*
X83850000Y-70060000D03*
X83850000Y-68790000D03*
X85120000Y-118320000D03*
X85120000Y-117050000D03*
X85120000Y-115780000D03*
X85120000Y-114510000D03*
X85120000Y-113240000D03*
X85120000Y-111970000D03*
X85120000Y-110700000D03*
X85120000Y-109430000D03*
X85120000Y-108160000D03*
X85120000Y-106890000D03*
X85120000Y-105620000D03*
X85120000Y-104350000D03*
X85120000Y-103080000D03*
X85120000Y-101810000D03*
X85120000Y-100540000D03*
X85120000Y-99270000D03*
X85120000Y-98000000D03*
X85120000Y-96730000D03*
X85120000Y-95460000D03*
X85120000Y-94195000D03*
X85120000Y-92915000D03*
X85120000Y-91650000D03*
X85120000Y-90380000D03*
X85120000Y-89110000D03*
X85120000Y-87840000D03*
X85120000Y-86570000D03*
X85120000Y-85300000D03*
X85120000Y-84030000D03*
X85120000Y-82760000D03*
X85120000Y-81490000D03*
X85120000Y-80220000D03*
X85120000Y-78950000D03*
X85120000Y-77680000D03*
X85120000Y-76410000D03*
X85120000Y-75140000D03*
X85120000Y-73870000D03*
X85120000Y-72600000D03*
X85120000Y-71330000D03*
X85120000Y-70060000D03*
X85120000Y-68790000D03*
X86390000Y-118320000D03*
X86390000Y-117050000D03*
X86390000Y-115780000D03*
X86390000Y-114510000D03*
X86390000Y-113240000D03*
X86390000Y-111970000D03*
X86390000Y-110700000D03*
X86390000Y-109430000D03*
X86390000Y-108160000D03*
X86390000Y-106890000D03*
X86390000Y-105620000D03*
X86390000Y-104350000D03*
X86390000Y-103080000D03*
X86390000Y-101810000D03*
X86390000Y-100540000D03*
X86390000Y-99270000D03*
X86390000Y-98000000D03*
X86390000Y-96730000D03*
X86390000Y-95460000D03*
X86390000Y-94195000D03*
X86390000Y-92915000D03*
X86390000Y-91650000D03*
X86390000Y-90380000D03*
X86390000Y-89110000D03*
X86390000Y-87840000D03*
X86390000Y-86570000D03*
X86390000Y-85300000D03*
X86390000Y-84030000D03*
X86390000Y-82760000D03*
X86390000Y-81490000D03*
X86390000Y-80220000D03*
X86390000Y-78950000D03*
X86390000Y-77680000D03*
X86390000Y-76410000D03*
X86390000Y-75140000D03*
X86390000Y-73870000D03*
X86390000Y-72600000D03*
X86390000Y-71330000D03*
X86390000Y-70060000D03*
X86390000Y-68790000D03*
X87660000Y-118320000D03*
X87660000Y-117050000D03*
X87660000Y-115780000D03*
X87660000Y-114510000D03*
X87660000Y-113240000D03*
X87660000Y-111970000D03*
X87660000Y-110700000D03*
X87660000Y-109430000D03*
X87660000Y-108160000D03*
X87660000Y-106890000D03*
X87660000Y-105620000D03*
X87660000Y-104350000D03*
X87660000Y-103080000D03*
X87660000Y-101810000D03*
X87660000Y-100540000D03*
X87660000Y-99270000D03*
X87660000Y-98000000D03*
X87660000Y-96730000D03*
X87660000Y-95460000D03*
X87660000Y-94195000D03*
X87660000Y-92915000D03*
X87660000Y-91650000D03*
X87660000Y-90380000D03*
X87660000Y-89110000D03*
X87660000Y-87840000D03*
X87660000Y-86570000D03*
X87660000Y-85300000D03*
X87660000Y-84030000D03*
X87660000Y-82760000D03*
X87660000Y-81490000D03*
X87660000Y-80220000D03*
X87660000Y-78950000D03*
X87660000Y-77680000D03*
X87660000Y-76410000D03*
X87660000Y-75140000D03*
X87660000Y-73870000D03*
X87660000Y-72600000D03*
X87660000Y-71330000D03*
X87660000Y-70060000D03*
X87660000Y-68790000D03*
%TD*%
M02*
